<?xml version="1.0" encoding="utf-8"?>
<!-- Generator: Adobe Illustrator 16.0.0, SVG Export Plug-In . SVG Version: 6.00 Build 0)  -->
<!DOCTYPE svg PUBLIC "-//W3C//DTD SVG 1.1//EN" "http://www.w3.org/Graphics/SVG/1.1/DTD/svg11.dtd">
<svg version="1.1" id="Layer_1" xmlns="http://www.w3.org/2000/svg" xmlns:xlink="http://www.w3.org/1999/xlink" x="0px" y="0px"
	 width="361.28px" height="11.556px" viewBox="0 0 361.28 11.556" enable-background="new 0 0 361.28 11.556" xml:space="preserve">
<g>
	<path fill="#F7EBE0" d="M8.954,3.968H7.868l0.148-1.844C7.754,1.894,7.226,1.45,6.059,1.45c-1.681,0-2.964,2.583-2.964,5.548
		c0,1.859,0.608,2.947,1.712,2.947c1.054,0,2.289-0.66,3.03-1.088L7.54,10.652c-0.627,0.395-1.729,0.904-3.227,0.904
		C1.745,11.556,0,10.141,0,6.981C0,2.667,2.503,0,6.059,0c1.794,0,2.863,0.742,3.391,1.12L8.954,3.968z"/>
	<path fill="#F7EBE0" d="M17.813,11.294h-7.211l0.166-0.972l0.772-0.165L13.09,1.45l-0.726-0.165l0.182-0.972h4.492l-0.18,0.972
		l-0.84,0.165l-1.498,8.478h2.388l0.609-1.58h0.987L17.813,11.294z"/>
	<path fill="#F7EBE0" d="M30.292,3.228h-0.97l-0.067-1.564h-3.127l-0.561,3.226h1.812l0.33-0.905h0.92l-0.56,3.061h-0.922V6.14
		h-1.81L24.68,9.927h3.128l0.808-1.762h0.97l-0.807,3.129h-8.018l0.166-0.972l0.772-0.165l1.547-8.708l-0.724-0.165l0.181-0.972
		h8.099L30.292,3.228z"/>
	<path fill="#F7EBE0" d="M43.497,1.285L42.74,1.45l-4.839,9.845H35.25L34.212,1.45l-0.724-0.165l0.181-0.972h4.463l-0.164,0.972
		L37.192,1.45l0.643,6.7l3.325-6.7l-0.725-0.165l0.184-0.972h3.061L43.497,1.285z"/>
	<path fill="#F7EBE0" d="M54.003,3.228H53.03l-0.064-1.564h-3.128l-0.561,3.226h1.81l0.331-0.905h0.922l-0.56,3.061h-0.923V6.14
		h-1.811L48.39,9.927h3.127l0.806-1.762h0.973l-0.807,3.129h-8.018l0.165-0.972l0.773-0.165l1.547-8.708l-0.724-0.165l0.181-0.972
		h8.101L54.003,3.228z"/>
	<path fill="#F7EBE0" d="M67.569,1.285L66.795,1.45l-1.745,9.845h-2.289l-3.555-8.249l-1.252,7.112l0.727,0.165l-0.182,0.972h-2.982
		l0.167-0.972l0.772-0.165l1.549-8.708L57.28,1.285l0.179-0.972h3.671l3.113,7.063l1.054-5.927l-0.725-0.165l0.182-0.972h2.979
		L67.569,1.285z"/>
	<path fill="#F7EBE0" d="M78.552,11.294h-4.561l0.164-0.972l0.773-0.165l-0.182-2.453h-2.665l-1.218,2.453l0.723,0.165l-0.181,0.972
		h-3.128l0.165-0.972l0.772-0.165l5.039-9.845h2.682l1.055,9.845l0.724,0.165L78.552,11.294z M74.402,3.029l-1.729,3.458h1.99
		L74.402,3.029z"/>
	<path fill="#F7EBE0" d="M88.48,11.294H81.27l0.163-0.972l0.774-0.165l1.549-8.708L83.03,1.285l0.181-0.972h4.494l-0.182,0.972
		L86.686,1.45l-1.499,8.478h2.387l0.609-1.58h0.988L88.48,11.294z"/>
	<path fill="#F7EBE0" d="M96.085,11.294h-4.657l0.163-0.972l0.774-0.165l1.549-8.708l-0.726-0.165l0.182-0.972h4.906
		c2.88,0,4.164,1.399,4.164,4.066C102.44,8.496,100.646,11.294,96.085,11.294z M97.699,1.598c-0.561,0-0.905,0.082-0.905,0.082
		l-1.449,8.214c0,0,0.544,0.084,0.872,0.084c2.19,0,3.147-2.965,3.147-5.615C99.364,2.306,98.77,1.598,97.699,1.598z"/>
	<path fill="#F7EBE0" d="M106.821,5.384l-0.855-1.103c0.559-0.527,1.055-1.037,1.398-1.729l-0.971-0.593
		C106.36,0.972,106.805,0,107.972,0c0.957,0,1.5,0.676,1.5,1.63C109.472,3.292,108.105,4.561,106.821,5.384z"/>
	<path fill="#F7EBE0" d="M119.663,3.869h-1.119l0.148-1.777c-0.313-0.214-0.956-0.56-1.86-0.56c-0.822,0-1.416,0.478-1.416,1.333
		c0,0.757,0.524,1.038,0.971,1.35l1.333,0.922c0.89,0.609,1.533,1.399,1.533,2.783c0,2.831-1.68,3.637-4.331,3.637
		c-1.744,0-3.128-0.674-3.769-1.036l0.541-3.028h1.12l-0.132,1.843c0.312,0.215,1.121,0.644,2.059,0.644
		c0.954,0,1.516-0.413,1.516-1.434c0-0.691-0.33-1.037-0.775-1.334l-1.233-0.822c-0.872-0.577-1.796-1.35-1.796-2.947
		c0-2.469,1.893-3.441,4.28-3.441c1.696,0,2.817,0.593,3.44,0.955L119.663,3.869z"/>
	<path fill="#F7EBE0" d="M138.054,3.968h-1.086l0.147-1.844c-0.265-0.231-0.79-0.675-1.959-0.675c-1.679,0-2.964,2.583-2.964,5.548
		c0,1.859,0.61,2.947,1.713,2.947c1.053,0,2.288-0.66,3.029-1.088l-0.297,1.795c-0.627,0.395-1.727,0.904-3.226,0.904
		c-2.569,0-4.314-1.415-4.314-4.575c0-4.313,2.503-6.981,6.059-6.981c1.794,0,2.865,0.742,3.391,1.12L138.054,3.968z"/>
	<path fill="#F7EBE0" d="M147.473,6.487l1.118,3.671l0.725,0.165l-0.181,0.972h-3.54l-1.234-4.66l-0.147-0.049l-0.642,3.572
		l0.642,0.148l-0.165,0.988h-4.346l0.164-0.972l0.774-0.165l1.547-8.708l-0.724-0.165l0.181-0.972h4.841
		c2.041,0,3.127,0.79,3.127,2.716C149.612,4.874,148.771,5.994,147.473,6.487z M145.645,1.614c-0.346,0-0.575,0.083-0.575,0.083
		l-0.643,3.638c0,0,0.344,0.164,0.725,0.164c0.791,0,1.35-1.086,1.35-2.436C146.501,2.01,146.189,1.614,145.645,1.614z"/>
	<path fill="#F7EBE0" d="M162.141,11.294h-4.56l0.164-0.972l0.775-0.165l-0.181-2.453h-2.668l-1.218,2.453l0.724,0.165l-0.181,0.972
		h-3.129l0.166-0.972l0.773-0.165l5.038-9.845h2.683l1.052,9.845l0.726,0.165L162.141,11.294z M157.993,3.029l-1.729,3.458h1.994
		L157.993,3.029z"/>
	<path fill="#F7EBE0" d="M174.39,3.228h-0.969l-0.051-1.564h-3.145l-0.561,3.226h1.812l0.329-0.905h0.921l-0.561,3.061h-0.921V6.14
		h-1.81l-0.708,4.018l1.052,0.148l-0.181,0.988h-4.741l0.166-0.972l0.772-0.165l1.548-8.708l-0.725-0.165l0.184-0.972h8.098
		L174.39,3.228z"/>
	<path fill="#F7EBE0" d="M186.278,3.425h-0.972l-0.065-1.514h-1.812l-1.449,8.23l1.303,0.132l-0.181,1.021h-5.565l0.181-1.021
		l1.334-0.132l1.447-8.23h-1.811l-0.593,1.514h-0.972l0.643-3.112h8.99L186.278,3.425z"/>
	<path fill="#F7EBE0" d="M201.805,6.487l1.119,3.671l0.725,0.165l-0.181,0.972h-3.54l-1.235-4.66l-0.147-0.049l-0.643,3.572
		l0.643,0.148l-0.166,0.988h-4.343l0.163-0.972l0.773-0.165l1.548-8.708l-0.724-0.165l0.18-0.972h4.839
		c2.043,0,3.129,0.79,3.129,2.716C203.944,4.874,203.105,5.994,201.805,6.487z M199.978,1.614c-0.346,0-0.576,0.083-0.576,0.083
		l-0.642,3.638c0,0,0.344,0.164,0.724,0.164c0.79,0,1.35-1.086,1.35-2.436C200.833,2.01,200.521,1.614,199.978,1.614z"/>
	<path fill="#F7EBE0" d="M215.733,3.228h-0.971l-0.065-1.564h-3.128l-0.561,3.226h1.811l0.329-0.905h0.921l-0.558,3.061h-0.923V6.14
		h-1.811l-0.658,3.787h3.128l0.806-1.762h0.972l-0.808,3.129h-8.016l0.164-0.972l0.773-0.165l1.549-8.708l-0.725-0.165l0.181-0.972
		h8.099L215.733,3.228z"/>
	<path fill="#F7EBE0" d="M226.962,3.968h-1.087l0.15-1.844c-0.265-0.231-0.79-0.675-1.96-0.675c-1.679,0-2.964,2.583-2.964,5.548
		c0,1.859,0.609,2.947,1.713,2.947c1.053,0,2.288-0.66,3.027-1.088l-0.296,1.795c-0.625,0.395-1.728,0.904-3.225,0.904
		c-2.569,0-4.314-1.415-4.314-4.575c0-4.313,2.502-6.981,6.059-6.981c1.794,0,2.864,0.742,3.392,1.12L226.962,3.968z"/>
	<path fill="#F7EBE0" d="M233.894,11.556c-2.683,0-4.625-1.168-4.625-4.411c0-3.934,1.876-7.145,5.992-7.145
		c2.7,0,4.611,1.268,4.611,4.412C239.872,8.396,238.024,11.556,233.894,11.556z M235.146,1.45c-1.925,0-2.815,3.901-2.815,5.795
		c0,1.925,0.511,2.848,1.696,2.848c1.876,0,2.798-3.804,2.798-5.778C236.825,2.323,236.298,1.45,235.146,1.45z"/>
	<path fill="#F7EBE0" d="M249.453,6.487l1.12,3.671l0.724,0.165l-0.181,0.972h-3.541l-1.234-4.66l-0.146-0.049l-0.644,3.572
		l0.644,0.148l-0.167,0.988h-4.347l0.165-0.972l0.774-0.165l1.548-8.708l-0.726-0.165l0.182-0.972h4.84
		c2.043,0,3.128,0.79,3.128,2.716C251.593,4.874,250.755,5.994,249.453,6.487z M247.627,1.614c-0.348,0-0.577,0.083-0.577,0.083
		l-0.643,3.638c0,0,0.346,0.164,0.726,0.164c0.789,0,1.349-1.086,1.349-2.436C248.481,2.01,248.169,1.614,247.627,1.614z"/>
	<path fill="#F7EBE0" d="M258.511,11.294h-4.661l0.165-0.972l0.772-0.165l1.549-8.708l-0.725-0.165l0.182-0.972h4.905
		c2.88,0,4.165,1.399,4.165,4.066C264.863,8.496,263.069,11.294,258.511,11.294z M260.122,1.598c-0.561,0-0.904,0.082-0.904,0.082
		l-1.448,8.214c0,0,0.543,0.084,0.87,0.084c2.19,0,3.145-2.965,3.145-5.615C261.784,2.306,261.192,1.598,260.122,1.598z"/>
	<path fill="#F7EBE0" d="M272.981,1.285l-0.774,0.165l-1.546,8.708l0.724,0.165l-0.182,0.972h-4.412l0.164-0.972l0.774-0.165
		l1.549-8.708l-0.726-0.165l0.183-0.972h4.411L272.981,1.285z"/>
	<path fill="#F7EBE0" d="M285.989,1.285l-0.775,0.165l-1.745,9.845h-2.288l-3.556-8.249l-1.251,7.112l0.725,0.165l-0.182,0.972
		h-2.981l0.167-0.972l0.772-0.165l1.548-8.708l-0.726-0.165l0.183-0.972h3.67l3.113,7.063l1.053-5.927l-0.726-0.165l0.183-0.972
		h2.98L285.989,1.285z"/>
	<path fill="#F7EBE0" d="M298.057,6.487l-0.759,0.165l-0.838,4.643h-1.68l-0.395-0.412c-0.281,0.182-1.119,0.674-2.338,0.674
		c-2.074,0-3.952-1.068-3.952-4.461c0-4.625,2.767-7.095,6.257-7.095c1.941,0,3.111,0.725,3.671,1.103l-0.51,2.898h-1.087
		l0.131-1.745c-0.311-0.246-0.855-0.724-2.073-0.724c-1.777,0-3.275,2.437-3.275,5.481c0,1.992,0.526,2.932,1.563,2.932
		c0.46,0,0.904-0.148,1.036-0.215l0.527-3.014l-1.137-0.113l0.197-1.104h4.84L298.057,6.487z"/>
	<path fill="#F7EBE0" d="M315.163,3.869h-1.12l0.149-1.777c-0.314-0.214-0.956-0.56-1.861-0.56c-0.822,0-1.416,0.478-1.416,1.333
		c0,0.757,0.527,1.038,0.972,1.35l1.334,0.922c0.889,0.609,1.53,1.399,1.53,2.783c0,2.831-1.68,3.637-4.33,3.637
		c-1.744,0-3.127-0.674-3.769-1.036l0.543-3.028h1.119l-0.133,1.843c0.313,0.215,1.12,0.644,2.059,0.644
		c0.957,0,1.516-0.413,1.516-1.434c0-0.691-0.332-1.037-0.775-1.334l-1.232-0.822c-0.874-0.577-1.794-1.35-1.794-2.947
		c0-2.469,1.892-3.441,4.279-3.441c1.694,0,2.813,0.593,3.439,0.955L315.163,3.869z"/>
	<path fill="#F7EBE0" d="M322.918,6.816c-0.591,0-1.168-0.148-1.4-0.23l-0.64,3.572l1.052,0.148l-0.18,0.988h-4.742l0.165-0.972
		l0.773-0.165l1.549-8.708l-0.726-0.165l0.183-0.972h4.838c2.042,0,3.128,0.79,3.128,2.716
		C326.918,5.647,325.257,6.816,322.918,6.816z M322.951,1.614c-0.347,0-0.574,0.083-0.574,0.083l-0.644,3.638
		c0,0,0.346,0.164,0.724,0.164c0.79,0,1.351-1.086,1.351-2.436C323.808,2.01,323.494,1.614,322.951,1.614z"/>
	<path fill="#F7EBE0" d="M337.241,11.294h-4.56l0.163-0.972l0.775-0.165l-0.182-2.453h-2.666l-1.219,2.453l0.725,0.165l-0.183,0.972
		h-3.126l0.164-0.972l0.773-0.165l5.039-9.845h2.682l1.053,9.845l0.726,0.165L337.241,11.294z M333.095,3.029l-1.729,3.458h1.989
		L333.095,3.029z"/>
	<path fill="#F7EBE0" d="M349.59,3.968h-1.087l0.148-1.844c-0.263-0.231-0.791-0.675-1.959-0.675c-1.679,0-2.963,2.583-2.963,5.548
		c0,1.859,0.608,2.947,1.713,2.947c1.053,0,2.287-0.66,3.028-1.088l-0.296,1.795c-0.627,0.395-1.729,0.904-3.228,0.904
		c-2.567,0-4.313-1.415-4.313-4.575c0-4.313,2.503-6.981,6.059-6.981c1.795,0,2.865,0.742,3.39,1.12L349.59,3.968z"/>
	<path fill="#F7EBE0" d="M360.769,3.228h-0.971l-0.065-1.564h-3.128l-0.56,3.226h1.812l0.327-0.905h0.923l-0.56,3.061h-0.921V6.14
		h-1.812l-0.658,3.787h3.127l0.809-1.762h0.972l-0.808,3.129h-8.017l0.163-0.972l0.775-0.165l1.547-8.708l-0.725-0.165l0.181-0.972
		h8.101L360.769,3.228z"/>
</g>
</svg>
