<?xml version="1.0" encoding="utf-8"?>
<!-- Generator: Adobe Illustrator 16.0.0, SVG Export Plug-In . SVG Version: 6.00 Build 0)  -->
<!DOCTYPE svg PUBLIC "-//W3C//DTD SVG 1.1//EN" "http://www.w3.org/Graphics/SVG/1.1/DTD/svg11.dtd">
<svg version="1.1" id="Layer_1" xmlns="http://www.w3.org/2000/svg" xmlns:xlink="http://www.w3.org/1999/xlink" x="0px" y="0px"
	 width="851.626px" height="71.906px" viewBox="0 0 851.626 71.906" enable-background="new 0 0 851.626 71.906"
	 xml:space="preserve">
<g>
	<g>
		<path fill="#F7EBE0" d="M7.271,32.828c0.962,0.099,2.076,0.647,2.076,2.174c0,2.839-1.794,3.586-4.436,3.586H0l0.165-0.979
			l0.78-0.166l1.562-8.783l-0.732-0.167l0.185-0.979h4.548c2.342,0,3.47,0.648,3.47,2.408C9.978,31.698,8.965,32.545,7.271,32.828z
			 M5.196,33.409c-0.215,0-0.465,0.033-0.582,0.066l-0.662,3.736c0.131,0.032,0.447,0.065,0.613,0.065
			c1.162,0,1.691-0.946,1.691-2.356C6.257,33.84,5.893,33.409,5.196,33.409z M5.959,28.81c-0.165,0-0.431,0.033-0.548,0.05
			l-0.564,3.287c0.117,0.017,0.266,0.017,0.382,0.017c1.213,0,1.611-1.079,1.611-2.125C6.84,29.158,6.523,28.81,5.959,28.81z"/>
		<path fill="#F7EBE0" d="M21.535,38.589h-4.599l0.165-0.979l0.781-0.166L17.7,34.969h-2.691l-1.226,2.474l0.729,0.166l-0.182,0.979
			h-3.155l0.165-0.979l0.78-0.166l5.082-9.929h2.705l1.063,9.929l0.729,0.166L21.535,38.589z M17.352,30.254l-1.744,3.487h2.01
			L17.352,30.254z"/>
		<path fill="#F7EBE0" d="M28.976,38.589h-4.699l0.166-0.979l0.781-0.166l1.558-8.783l-0.729-0.167l0.183-0.979h4.947
			c2.906,0,4.2,1.412,4.2,4.101C35.383,35.766,33.573,38.589,28.976,38.589z M30.602,28.81c-0.565,0-0.913,0.083-0.913,0.083
			l-1.462,8.285c0,0,0.549,0.082,0.881,0.082c2.209,0,3.172-2.988,3.172-5.661C32.279,29.523,31.682,28.81,30.602,28.81z"/>
		<path fill="#F7EBE0" d="M51.641,33.741l1.13,3.702l0.729,0.166l-0.182,0.979h-3.569l-1.246-4.699l-0.149-0.05l-0.648,3.604
			l0.648,0.148l-0.166,0.997h-4.383l0.166-0.979l0.779-0.166l1.561-8.783l-0.73-0.167l0.184-0.979h4.883
			c2.057,0,3.152,0.797,3.152,2.74C53.798,32.114,52.952,33.242,51.641,33.741z M49.796,28.826c-0.347,0-0.58,0.083-0.58,0.083
			l-0.646,3.669c0,0,0.348,0.167,0.73,0.167c0.796,0,1.361-1.097,1.361-2.458C50.661,29.225,50.346,28.826,49.796,28.826z"/>
		<path fill="#F7EBE0" d="M66.435,38.589h-4.6l0.166-0.979l0.781-0.166l-0.184-2.474h-2.689l-1.227,2.474l0.729,0.166l-0.183,0.979
			h-3.154l0.166-0.979l0.78-0.166l5.08-9.929h2.706l1.063,9.929l0.729,0.166L66.435,38.589z M62.251,30.254l-1.744,3.487h2.008
			L62.251,30.254z"/>
		<path fill="#F7EBE0" d="M78.889,31.2h-1.097l0.148-1.86c-0.265-0.231-0.796-0.68-1.974-0.68c-1.694,0-2.987,2.606-2.987,5.594
			c0,1.877,0.611,2.972,1.724,2.972c1.063,0,2.309-0.664,3.057-1.095l-0.3,1.81c-0.63,0.397-1.742,0.912-3.255,0.912
			c-2.589,0-4.35-1.428-4.35-4.615c0-4.35,2.524-7.041,6.111-7.041c1.807,0,2.887,0.749,3.42,1.129L78.889,31.2z"/>
		<path fill="#F7EBE0" d="M86.793,28.494l-0.78,0.167l-1.562,8.783l0.732,0.166l-0.185,0.979H80.55l0.166-0.979l0.779-0.166
			l1.561-8.783l-0.729-0.167l0.182-0.979h4.45L86.793,28.494z M92.022,28.494l-0.781,0.167l-3.054,3.288l1.677,5.478l0.779,0.184
			l-0.164,0.979h-3.537l-1.678-5.695l4.067-4.233l-0.73-0.167l0.183-0.979h3.402L92.022,28.494z"/>
		<path fill="#F7EBE0" d="M102.831,30.453h-0.979l-0.066-1.578h-3.155l-0.563,3.254h1.824l0.332-0.913h0.932l-0.564,3.089h-0.932
			v-0.914h-1.824l-0.665,3.819h3.156l0.812-1.777h0.98l-0.814,3.155H93.22l0.165-0.979l0.78-0.166l1.561-8.783l-0.729-0.167
			l0.181-0.979h8.17L102.831,30.453z"/>
		<path fill="#F7EBE0" d="M114.986,30.653h-0.979l-0.066-1.528h-1.826l-1.463,8.301l1.312,0.135l-0.182,1.028h-5.611l0.183-1.028
			l1.345-0.135l1.463-8.301h-1.826l-0.601,1.528h-0.977l0.646-3.139h9.064L114.986,30.653z"/>
		<path fill="#F7EBE0" d="M126.08,34.969c-1.111,0-1.993-0.93-1.993-2.009c0-1.096,0.882-1.993,1.993-1.993
			c1.097,0,1.991,0.88,1.991,1.993C128.071,34.057,127.192,34.969,126.08,34.969z"/>
		<path fill="#F7EBE0" d="M144.428,33.741l1.128,3.702l0.732,0.166l-0.183,0.979h-3.571l-1.244-4.699l-0.151-0.05l-0.646,3.604
			l0.646,0.148l-0.165,0.997h-4.383l0.167-0.979l0.779-0.166l1.56-8.783l-0.728-0.167l0.182-0.979h4.88
			c2.06,0,3.155,0.797,3.155,2.74C146.586,32.114,145.739,33.242,144.428,33.741z M142.584,28.826c-0.349,0-0.58,0.083-0.58,0.083
			l-0.648,3.669c0,0,0.348,0.167,0.731,0.167c0.797,0,1.361-1.097,1.361-2.458C143.448,29.225,143.132,28.826,142.584,28.826z"/>
		<path fill="#F7EBE0" d="M158.476,30.453h-0.979l-0.066-1.578h-3.155l-0.565,3.254h1.827l0.333-0.913h0.928l-0.562,3.089h-0.932
			v-0.914h-1.824l-0.665,3.819h3.153l0.815-1.777h0.979l-0.813,3.155h-8.085l0.166-0.979l0.78-0.166l1.561-8.783l-0.732-0.167
			l0.184-0.979h8.168L158.476,30.453z"/>
		<path fill="#F7EBE0" d="M169.8,31.2h-1.096l0.148-1.86c-0.264-0.231-0.797-0.68-1.975-0.68c-1.693,0-2.988,2.606-2.988,5.594
			c0,1.877,0.613,2.972,1.726,2.972c1.063,0,2.31-0.664,3.056-1.095l-0.298,1.81c-0.634,0.397-1.743,0.912-3.256,0.912
			c-2.59,0-4.349-1.428-4.349-4.615c0-4.35,2.522-7.041,6.109-7.041c1.809,0,2.887,0.749,3.42,1.129L169.8,31.2z"/>
		<path fill="#F7EBE0" d="M176.791,38.854c-2.707,0-4.665-1.178-4.665-4.449c0-3.967,1.893-7.206,6.044-7.206
			c2.723,0,4.647,1.279,4.647,4.45C182.817,35.667,180.958,38.854,176.791,38.854z M178.054,28.66c-1.942,0-2.842,3.936-2.842,5.844
			c0,1.942,0.517,2.873,1.712,2.873c1.892,0,2.821-3.835,2.821-5.829C179.745,29.54,179.214,28.66,178.054,28.66z"/>
		<path fill="#F7EBE0" d="M192.483,33.741l1.129,3.702l0.729,0.166l-0.184,0.979h-3.57l-1.243-4.699l-0.15-0.05l-0.648,3.604
			l0.648,0.148l-0.164,0.997h-4.384l0.165-0.979l0.781-0.166l1.561-8.783l-0.73-0.167l0.182-0.979h4.881
			c2.06,0,3.155,0.797,3.155,2.74C194.641,32.114,193.793,33.242,192.483,33.741z M190.64,28.826c-0.351,0-0.583,0.083-0.583,0.083
			l-0.646,3.669c0,0,0.347,0.167,0.729,0.167c0.797,0,1.362-1.097,1.362-2.458C191.503,29.225,191.188,28.826,190.64,28.826z"/>
		<path fill="#F7EBE0" d="M201.614,38.589h-4.696l0.163-0.979l0.781-0.166l1.561-8.783l-0.73-0.167l0.182-0.979h4.95
			c2.903,0,4.2,1.412,4.2,4.101C208.024,35.766,206.214,38.589,201.614,38.589z M203.243,28.81c-0.565,0-0.914,0.083-0.914,0.083
			l-1.462,8.285c0,0,0.549,0.082,0.881,0.082c2.208,0,3.172-2.988,3.172-5.661C204.92,29.523,204.321,28.81,203.243,28.81z"/>
		<path fill="#F7EBE0" d="M216.212,28.494l-0.781,0.167l-1.562,8.783l0.732,0.166l-0.184,0.979h-4.45l0.168-0.979l0.777-0.166
			l1.562-8.783l-0.731-0.167l0.183-0.979h4.451L216.212,28.494z"/>
		<path fill="#F7EBE0" d="M229.326,28.494l-0.778,0.167l-1.76,9.929h-2.307l-3.588-8.318l-1.26,7.172l0.729,0.166l-0.184,0.979
			h-3.004l0.164-0.979l0.781-0.166l1.562-8.783l-0.729-0.167l0.18-0.979h3.704l3.139,7.123l1.062-5.977l-0.73-0.167l0.182-0.979
			h3.006L229.326,28.494z"/>
		<path fill="#F7EBE0" d="M241.498,33.741l-0.763,0.166l-0.847,4.682h-1.694l-0.396-0.416c-0.283,0.184-1.129,0.681-2.358,0.681
			c-2.092,0-3.986-1.078-3.986-4.499c0-4.666,2.792-7.157,6.312-7.157c1.958,0,3.136,0.731,3.702,1.113l-0.515,2.922h-1.096
			l0.132-1.76c-0.316-0.249-0.863-0.729-2.091-0.729c-1.795,0-3.305,2.457-3.305,5.528c0,2.01,0.531,2.955,1.576,2.955
			c0.467,0,0.914-0.148,1.045-0.215l0.533-3.038l-1.145-0.116l0.197-1.112h4.882L241.498,33.741z"/>
		<path fill="#F7EBE0" d="M258.752,31.101h-1.13l0.15-1.793c-0.314-0.215-0.963-0.563-1.877-0.563c-0.828,0-1.426,0.481-1.426,1.344
			c0,0.765,0.53,1.047,0.98,1.362l1.342,0.93c0.898,0.615,1.544,1.411,1.544,2.807c0,2.855-1.692,3.668-4.366,3.668
			c-1.757,0-3.152-0.681-3.802-1.046l0.548-3.055h1.129l-0.131,1.86c0.313,0.215,1.127,0.647,2.074,0.647
			c0.963,0,1.528-0.414,1.528-1.443c0-0.698-0.332-1.046-0.78-1.346l-1.247-0.829c-0.879-0.582-1.809-1.362-1.809-2.973
			c0-2.49,1.909-3.471,4.317-3.471c1.711,0,2.839,0.599,3.469,0.964L258.752,31.101z"/>
		<path fill="#F7EBE0" d="M271.239,30.653h-0.98l-0.065-1.528h-1.826l-1.462,8.301l1.312,0.135l-0.181,1.028h-5.613l0.183-1.028
			l1.345-0.135l1.462-8.301h-1.826l-0.6,1.528h-0.979l0.647-3.139h9.065L271.239,30.653z"/>
		<path fill="#F7EBE0" d="M284.059,28.494l-0.78,0.167l-1.13,6.326c-0.515,2.838-1.66,3.868-4.385,3.868
			c-2.606,0-4.248-1.228-3.768-3.984l1.097-6.209l-0.731-0.167l0.185-0.979h4.447l-0.166,0.979l-0.779,0.167l-1.078,6.16
			c-0.25,1.445-0.036,2.557,1.311,2.557c1.311,0,2.075-0.88,2.341-2.391l1.111-6.326l-0.729-0.167l0.182-0.979h3.056L284.059,28.494
			z"/>
		<path fill="#F7EBE0" d="M289.722,38.589h-4.699l0.167-0.979l0.78-0.166l1.561-8.783l-0.73-0.167l0.182-0.979h4.948
			c2.905,0,4.2,1.412,4.2,4.101C296.13,35.766,294.32,38.589,289.722,38.589z M291.348,28.81c-0.563,0-0.912,0.083-0.912,0.083
			l-1.463,8.285c0,0,0.55,0.082,0.881,0.082c2.21,0,3.172-2.988,3.172-5.661C293.025,29.523,292.428,28.81,291.348,28.81z"/>
		<path fill="#F7EBE0" d="M304.315,28.494l-0.78,0.167l-1.561,8.783l0.731,0.166l-0.182,0.979h-4.45l0.165-0.979l0.78-0.166
			l1.562-8.783l-0.73-0.167l0.181-0.979h4.449L304.315,28.494z"/>
		<path fill="#F7EBE0" d="M310.959,38.854c-2.706,0-4.665-1.178-4.665-4.449c0-3.967,1.893-7.206,6.042-7.206
			c2.724,0,4.65,1.279,4.65,4.45C316.986,35.667,315.126,38.854,310.959,38.854z M312.22,28.66c-1.941,0-2.839,3.936-2.839,5.844
			c0,1.942,0.516,2.873,1.711,2.873c1.893,0,2.821-3.835,2.821-5.829C313.913,29.54,313.383,28.66,312.22,28.66z"/>
	</g>
	<g>
		<path fill="#F7EBE0" d="M495.959,31.205h-1.097l0.149-1.862c-0.265-0.233-0.798-0.681-1.976-0.681
			c-1.697,0-2.992,2.608-2.992,5.601c0,1.877,0.613,2.974,1.729,2.974c1.062,0,2.311-0.665,3.059-1.097l-0.299,1.812
			c-0.634,0.398-1.746,0.914-3.258,0.914c-2.593,0-4.354-1.43-4.354-4.62c0-4.354,2.526-7.047,6.116-7.047
			c1.811,0,2.89,0.749,3.422,1.131L495.959,31.205z"/>
		<path fill="#F7EBE0" d="M504.902,38.6h-7.28l0.168-0.98l0.78-0.167l1.563-8.791l-0.732-0.167l0.184-0.981h4.535l-0.182,0.981
			l-0.848,0.167l-1.513,8.558h2.41l0.615-1.595h0.997L504.902,38.6z"/>
		<path fill="#F7EBE0" d="M517.499,30.457h-0.979l-0.067-1.579h-3.156l-0.566,3.257h1.83l0.332-0.914h0.93l-0.564,3.09h-0.932
			v-0.913h-1.826l-0.666,3.822h3.158l0.814-1.778h0.979l-0.814,3.158h-8.093l0.167-0.98l0.78-0.167l1.561-8.791l-0.729-0.167
			l0.183-0.981h8.175L517.499,30.457z"/>
		<path fill="#F7EBE0" d="M530.83,28.495l-0.765,0.167l-4.885,9.938h-2.677l-1.048-9.938l-0.73-0.167l0.183-0.981h4.505
			l-0.166,0.981l-0.782,0.167l0.648,6.763l3.357-6.763l-0.731-0.167l0.185-0.981h3.09L530.83,28.495z"/>
		<path fill="#F7EBE0" d="M541.435,30.457h-0.981l-0.065-1.579h-3.158l-0.564,3.257h1.826l0.334-0.914h0.931l-0.565,3.09h-0.932
			v-0.913h-1.826l-0.664,3.822h3.156l0.813-1.778h0.981l-0.814,3.158h-8.093l0.166-0.98l0.781-0.167l1.562-8.791l-0.73-0.167
			l0.183-0.981h8.177L541.435,30.457z"/>
		<path fill="#F7EBE0" d="M578.051,28.488l-0.781,0.167l-1.762,9.938h-2.311l-3.589-8.326l-1.264,7.18l0.732,0.166l-0.183,0.98
			h-3.011l0.168-0.98l0.78-0.166l1.563-8.791l-0.731-0.167l0.181-0.981h3.706l3.143,7.13l1.063-5.983l-0.731-0.167l0.184-0.981
			h3.006L578.051,28.488z"/>
		<path fill="#F7EBE0" d="M563.751,38.6h-4.604l0.166-0.98l0.78-0.167l-0.183-2.476h-2.691l-1.229,2.476l0.73,0.167l-0.184,0.98
			h-3.158l0.168-0.98l0.779-0.167l5.086-9.938h2.708l1.064,9.938l0.73,0.167L563.751,38.6z M559.562,30.256l-1.745,3.491h2.01
			L559.562,30.256z"/>
		<path fill="#F7EBE0" d="M550.946,38.6h-7.279l0.165-0.98l0.781-0.167l1.563-8.791l-0.732-0.167l0.183-0.981h4.537l-0.185,0.981
			l-0.845,0.167l-1.514,8.558h2.41l0.614-1.595h0.998L550.946,38.6z"/>
		<path fill="#F7EBE0" d="M583.916,38.6h-4.702l0.166-0.98l0.781-0.167l1.562-8.791l-0.732-0.167l0.184-0.981h4.953
			c2.907,0,4.204,1.413,4.204,4.105C590.332,35.774,588.521,38.6,583.916,38.6z M585.545,28.811c-0.565,0-0.913,0.083-0.913,0.083
			l-1.464,8.292c0,0,0.55,0.084,0.881,0.084c2.211,0,3.177-2.992,3.177-5.667C587.226,29.526,586.626,28.811,585.545,28.811z"/>
		<path fill="#F7EBE0" d="M594.754,32.633l-0.863-1.113c0.563-0.532,1.064-1.047,1.412-1.745l-0.98-0.598
			c-0.033-0.997,0.415-1.979,1.594-1.979c0.966,0,1.514,0.682,1.514,1.646C597.43,30.522,596.051,31.802,594.754,32.633z"/>
		<path fill="#F7EBE0" d="M607.718,31.104h-1.13l0.149-1.794c-0.316-0.216-0.965-0.565-1.877-0.565c-0.83,0-1.43,0.482-1.43,1.346
			c0,0.765,0.529,1.048,0.98,1.363l1.345,0.931c0.897,0.615,1.547,1.413,1.547,2.809c0,2.858-1.695,3.673-4.372,3.673
			c-1.76,0-3.156-0.682-3.803-1.047l0.545-3.057h1.131l-0.133,1.861c0.316,0.216,1.131,0.648,2.078,0.648
			c0.963,0,1.529-0.417,1.529-1.446c0-0.698-0.332-1.047-0.781-1.347l-1.246-0.831c-0.881-0.582-1.812-1.362-1.812-2.975
			c0-2.493,1.91-3.474,4.32-3.474c1.712,0,2.844,0.599,3.474,0.964L607.718,31.104z"/>
		<path fill="#F7EBE0" d="M626.282,31.205h-1.096l0.148-1.862c-0.267-0.233-0.797-0.681-1.977-0.681
			c-1.695,0-2.992,2.608-2.992,5.601c0,1.877,0.616,2.974,1.729,2.974c1.062,0,2.311-0.665,3.059-1.097l-0.301,1.812
			c-0.633,0.398-1.742,0.914-3.255,0.914c-2.594,0-4.355-1.43-4.355-4.62c0-4.354,2.526-7.047,6.116-7.047
			c1.81,0,2.893,0.749,3.422,1.131L626.282,31.205z"/>
		<path fill="#F7EBE0" d="M635.791,33.747l1.129,3.705l0.731,0.167l-0.183,0.98h-3.573l-1.247-4.703l-0.148-0.051l-0.647,3.606
			l0.647,0.15l-0.167,0.997h-4.387l0.166-0.98l0.781-0.167l1.562-8.791l-0.73-0.167l0.183-0.981h4.887
			c2.061,0,3.157,0.798,3.157,2.742C637.951,32.119,637.103,33.249,635.791,33.747z M633.945,28.828
			c-0.349,0-0.581,0.084-0.581,0.084l-0.648,3.672c0,0,0.348,0.166,0.731,0.166c0.799,0,1.362-1.097,1.362-2.459
			C634.81,29.227,634.495,28.828,633.945,28.828z"/>
		<path fill="#F7EBE0" d="M650.598,38.6h-4.603l0.166-0.98l0.783-0.167l-0.184-2.476h-2.693l-1.229,2.476l0.73,0.167l-0.184,0.98
			h-3.157l0.167-0.98l0.781-0.167l5.086-9.938h2.707l1.062,9.938l0.732,0.167L650.598,38.6z M646.411,30.256l-1.746,3.491h2.014
			L646.411,30.256z"/>
		<path fill="#F7EBE0" d="M662.964,30.457h-0.979l-0.051-1.579h-3.175l-0.566,3.257h1.83l0.332-0.914h0.931l-0.566,3.09h-0.93
			v-0.913h-1.827l-0.715,4.055l1.062,0.15l-0.183,0.997h-4.786l0.167-0.98l0.78-0.167l1.562-8.791l-0.731-0.167l0.185-0.981h8.175
			L662.964,30.457z"/>
		<path fill="#F7EBE0" d="M674.965,30.656h-0.981l-0.066-1.529h-1.828l-1.463,8.309l1.314,0.133l-0.183,1.031h-5.618l0.184-1.031
			l1.346-0.133l1.461-8.309h-1.826l-0.6,1.529h-0.98l0.648-3.142h9.075L674.965,30.656z"/>
		<path fill="#F7EBE0" d="M690.638,33.747l1.13,3.705l0.731,0.167l-0.183,0.98h-3.573l-1.246-4.703l-0.15-0.051l-0.648,3.606
			l0.648,0.15l-0.166,0.997h-4.385l0.165-0.98l0.78-0.167l1.563-8.791l-0.731-0.167l0.182-0.981h4.885
			c2.062,0,3.158,0.798,3.158,2.742C692.798,32.119,691.951,33.249,690.638,33.747z M688.794,28.828
			c-0.35,0-0.582,0.084-0.582,0.084l-0.648,3.672c0,0,0.348,0.166,0.73,0.166c0.799,0,1.363-1.097,1.363-2.459
			C689.657,29.227,689.343,28.828,688.794,28.828z"/>
		<path fill="#F7EBE0" d="M704.699,30.457h-0.98l-0.065-1.579h-3.158l-0.565,3.257h1.828l0.332-0.914h0.93l-0.563,3.09h-0.932
			v-0.913h-1.827l-0.665,3.822h3.158l0.813-1.778h0.98l-0.815,3.158h-8.092l0.166-0.98l0.78-0.167l1.563-8.791l-0.731-0.167
			l0.183-0.981h8.176L704.699,30.457z"/>
		<path fill="#F7EBE0" d="M716.033,31.205h-1.097l0.151-1.862c-0.267-0.233-0.798-0.681-1.978-0.681
			c-1.695,0-2.992,2.608-2.992,5.601c0,1.877,0.615,2.974,1.729,2.974c1.062,0,2.31-0.665,3.057-1.097l-0.299,1.812
			c-0.631,0.398-1.744,0.914-3.256,0.914c-2.593,0-4.354-1.43-4.354-4.62c0-4.354,2.526-7.047,6.116-7.047
			c1.811,0,2.891,0.749,3.423,1.131L716.033,31.205z"/>
		<path fill="#F7EBE0" d="M723.031,38.865c-2.708,0-4.669-1.18-4.669-4.454c0-3.971,1.894-7.213,6.05-7.213
			c2.726,0,4.654,1.28,4.654,4.454C729.066,35.675,727.202,38.865,723.031,38.865z M724.296,28.662c-1.943,0-2.842,3.938-2.842,5.85
			c0,1.943,0.516,2.875,1.712,2.875c1.895,0,2.825-3.84,2.825-5.833C725.991,29.543,725.459,28.662,724.296,28.662z"/>
		<path fill="#F7EBE0" d="M738.738,33.747l1.131,3.705l0.73,0.167l-0.183,0.98h-3.574l-1.246-4.703l-0.146-0.051l-0.65,3.606
			l0.65,0.15l-0.168,0.997h-4.389l0.166-0.98l0.781-0.167l1.562-8.791l-0.732-0.167l0.184-0.981h4.886
			c2.062,0,3.158,0.798,3.158,2.742C740.898,32.119,740.052,33.249,738.738,33.747z M736.896,28.828
			c-0.352,0-0.584,0.084-0.584,0.084l-0.648,3.672c0,0,0.35,0.166,0.732,0.166c0.797,0,1.362-1.097,1.362-2.459
			C737.758,29.227,737.441,28.828,736.896,28.828z"/>
		<path fill="#F7EBE0" d="M747.882,38.6h-4.705l0.166-0.98l0.78-0.167l1.563-8.791l-0.731-0.167l0.184-0.981h4.952
			c2.906,0,4.203,1.413,4.203,4.105C754.294,35.774,752.483,38.6,747.882,38.6z M749.509,28.811c-0.565,0-0.913,0.083-0.913,0.083
			l-1.462,8.292c0,0,0.548,0.084,0.879,0.084c2.211,0,3.174-2.992,3.174-5.667C751.187,29.526,750.589,28.811,749.509,28.811z"/>
		<path fill="#F7EBE0" d="M762.489,28.495l-0.781,0.167l-1.561,8.791l0.73,0.167l-0.184,0.98h-4.453l0.166-0.98l0.781-0.167
			l1.562-8.791l-0.732-0.167l0.186-0.981h4.452L762.489,28.495z"/>
		<path fill="#F7EBE0" d="M775.62,28.495l-0.781,0.167l-1.762,9.938h-2.311l-3.589-8.327l-1.264,7.179l0.731,0.167l-0.183,0.98
			h-3.01l0.168-0.98l0.78-0.167l1.562-8.791l-0.732-0.167l0.185-0.981h3.705l3.143,7.13l1.062-5.983l-0.732-0.167l0.186-0.981h3.008
			L775.62,28.495z"/>
		<path fill="#F7EBE0" d="M787.803,33.747l-0.766,0.166L786.19,38.6h-1.695l-0.398-0.416c-0.283,0.184-1.13,0.682-2.359,0.682
			c-2.094,0-3.99-1.08-3.99-4.504c0-4.669,2.793-7.163,6.316-7.163c1.96,0,3.141,0.731,3.706,1.114l-0.515,2.925h-1.098l0.133-1.762
			c-0.314-0.249-0.864-0.731-2.094-0.731c-1.794,0-3.307,2.46-3.307,5.534c0,2.01,0.531,2.958,1.578,2.958
			c0.465,0,0.914-0.148,1.047-0.215l0.532-3.043l-1.147-0.115l0.199-1.114h4.886L787.803,33.747z"/>
		<path fill="#F7EBE0" d="M805.071,31.104h-1.131l0.15-1.794c-0.316-0.216-0.965-0.565-1.879-0.565c-0.83,0-1.428,0.482-1.428,1.346
			c0,0.765,0.531,1.048,0.979,1.363l1.347,0.931c0.897,0.615,1.545,1.413,1.545,2.809c0,2.858-1.695,3.673-4.371,3.673
			c-1.76,0-3.156-0.682-3.804-1.047l0.548-3.057h1.129l-0.133,1.861c0.316,0.216,1.131,0.648,2.078,0.648
			c0.965,0,1.529-0.417,1.529-1.446c0-0.698-0.335-1.047-0.783-1.347l-1.244-0.831c-0.881-0.582-1.811-1.362-1.811-2.975
			c0-2.493,1.91-3.474,4.319-3.474c1.711,0,2.841,0.599,3.473,0.964L805.071,31.104z"/>
		<path fill="#F7EBE0" d="M812.9,34.08c-0.597,0-1.18-0.15-1.414-0.234l-0.646,3.606l1.062,0.15l-0.182,0.997h-4.787l0.166-0.98
			l0.781-0.167l1.563-8.791l-0.732-0.167l0.185-0.981h4.884c2.062,0,3.158,0.798,3.158,2.742
			C816.938,32.899,815.261,34.08,812.9,34.08z M812.934,28.828c-0.35,0-0.58,0.084-0.58,0.084l-0.649,3.672
			c0,0,0.349,0.166,0.73,0.166c0.798,0,1.363-1.097,1.363-2.459C813.798,29.227,813.481,28.828,812.934,28.828z"/>
		<path fill="#F7EBE0" d="M827.358,38.6h-4.602l0.164-0.98l0.782-0.167l-0.184-2.476h-2.69l-1.23,2.476l0.73,0.167l-0.184,0.98
			h-3.155l0.166-0.98l0.78-0.167l5.086-9.938h2.708l1.062,9.938l0.732,0.167L827.358,38.6z M823.173,30.256l-1.746,3.491h2.009
			L823.173,30.256z"/>
		<path fill="#F7EBE0" d="M839.825,31.205h-1.098l0.15-1.862c-0.266-0.233-0.799-0.681-1.978-0.681
			c-1.695,0-2.991,2.608-2.991,5.601c0,1.877,0.614,2.974,1.729,2.974c1.063,0,2.31-0.665,3.058-1.097l-0.299,1.812
			c-0.634,0.398-1.745,0.914-3.258,0.914c-2.592,0-4.354-1.43-4.354-4.62c0-4.354,2.526-7.047,6.116-7.047
			c1.812,0,2.893,0.749,3.421,1.131L839.825,31.205z"/>
		<path fill="#F7EBE0" d="M851.109,30.457h-0.979l-0.066-1.579h-3.158l-0.564,3.257h1.828l0.331-0.914h0.932l-0.565,3.09h-0.93
			v-0.913h-1.829l-0.665,3.822h3.157l0.816-1.778h0.98l-0.815,3.158h-8.092l0.164-0.98l0.783-0.167l1.561-8.791l-0.73-0.167
			l0.182-0.981h8.178L851.109,30.457z"/>
	</g>
	<g>
		<path fill="#F7EBE0" d="M406.948,16.696v19.257h-19.259C387.689,25.318,396.312,16.696,406.948,16.696z"/>
		<path fill="#F7EBE0" d="M406.948,35.953h19.257c0,10.636-8.622,19.257-19.257,19.257V35.953z"/>
		<path fill="#F7EBE0" d="M406.948,71.906c19.824,0,35.952-16.129,35.952-35.953C442.9,16.128,426.772,0,406.948,0
			s-35.954,16.128-35.954,35.953C370.994,55.777,387.124,71.906,406.948,71.906z M406.948,64.639
			c-15.845,0-28.687-12.844-28.687-28.686c0-15.843,12.842-28.685,28.687-28.685c15.842,0,28.683,12.842,28.683,28.685
			C435.631,51.795,422.79,64.639,406.948,64.639z"/>
	</g>
</g>
</svg>
