<?xml version="1.0" encoding="utf-8"?>
<!-- Generator: Adobe Illustrator 16.0.0, SVG Export Plug-In . SVG Version: 6.00 Build 0)  -->
<!DOCTYPE svg PUBLIC "-//W3C//DTD SVG 1.1//EN" "http://www.w3.org/Graphics/SVG/1.1/DTD/svg11.dtd">
<svg version="1.1" id="Layer_1" xmlns="http://www.w3.org/2000/svg" xmlns:xlink="http://www.w3.org/1999/xlink" x="0px" y="0px"
	 width="71.231px" height="71.23px" viewBox="0 0 71.231 71.23" enable-background="new 0 0 71.231 71.23" xml:space="preserve">
<g>
	<path fill="#F7EBE0" d="M35.616,15.156v20.459h-20.46C15.156,24.316,24.316,15.156,35.616,15.156z"/>
	<path fill="#F7EBE0" d="M35.616,35.615h20.458c0,11.3-9.159,20.459-20.458,20.459V35.615z"/>
	<path fill="#F7EBE0" d="M35.616,71.23c19.638,0,35.615-15.978,35.615-35.615C71.231,15.977,55.254,0,35.616,0S0,15.977,0,35.615
		C0,55.253,15.979,71.23,35.616,71.23z M35.616,64.03c-15.695,0-28.417-12.723-28.417-28.415C7.199,19.921,19.921,7.2,35.616,7.2
		C51.31,7.2,64.03,19.921,64.03,35.615C64.03,51.308,51.31,64.03,35.616,64.03z"/>
</g>
</svg>
