<?xml version="1.0" encoding="utf-8"?>
<!-- Generator: Adobe Illustrator 16.0.0, SVG Export Plug-In . SVG Version: 6.00 Build 0)  -->
<!DOCTYPE svg PUBLIC "-//W3C//DTD SVG 1.1//EN" "http://www.w3.org/Graphics/SVG/1.1/DTD/svg11.dtd">
<svg version="1.1" id="Layer_1" xmlns="http://www.w3.org/2000/svg" xmlns:xlink="http://www.w3.org/1999/xlink" x="0px" y="0px"
	 width="912.042px" height="104.788px" viewBox="0 0 912.042 104.788" enable-background="new 0 0 912.042 104.788"
	 xml:space="preserve">
<g>
	<path fill="#F1E6CB" d="M486.346,40.72C480.858,16.744,459.893,0,435.368,0c-3.921,0-7.855,0.447-11.693,1.327
		c-13.621,3.121-25.208,11.369-32.625,23.227c-7.414,11.849-9.775,25.886-6.649,39.525c5.49,23.968,26.453,40.709,50.977,40.709
		c3.915,0,7.85-0.446,11.692-1.324c13.624-3.123,25.212-11.369,32.628-23.227C487.112,68.391,489.473,54.357,486.346,40.72z
		 M435.369,14.472c17.735,0,32.896,12.121,36.874,29.481c2.262,9.873,0.553,20.035-4.812,28.613
		c-5.365,8.574-13.744,14.537-23.595,16.791c-2.781,0.637-5.629,0.963-8.458,0.963c-17.736,0-32.898-12.123-36.873-29.474
		c-2.266-9.878-0.554-20.04,4.81-28.62c5.365-8.574,13.743-14.54,23.588-16.796c2.78-0.638,5.625-0.958,8.461-0.958H435.369z"/>
	<g>
		<path fill="#F1E6CB" d="M426.241,81.3c0.785,0.771,1.738,0.557,2.117-0.477l9.104-24.793c0.379-1.033-0.187-1.672-1.257-1.418
			l-28.017,6.611c-1.07,0.254-1.304,1.09-0.519,1.86L426.241,81.3z"/>
	</g>
	<g>
		<path fill="#F1E6CB" d="M443.87,23.137c-0.785-0.77-1.738-0.556-2.117,0.477l-8.817,24.015c-0.379,1.033,0.187,1.671,1.257,1.418
			l27.146-6.407c1.07-0.253,1.304-1.09,0.519-1.86L443.87,23.137z"/>
	</g>
</g>
<g>
	<path fill="#F1E7CC" d="M7.788,56.011c1.031,0.106,2.223,0.693,2.223,2.328c0,3.041-1.92,3.842-4.747,3.842H0l0.178-1.049
		l0.835-0.179l1.672-9.406l-0.783-0.178l0.196-1.049H6.97c2.507,0,3.715,0.693,3.715,2.578C10.686,54.802,9.601,55.708,7.788,56.011
		z M5.565,56.632c-0.231,0-0.498,0.035-0.623,0.072l-0.712,4c0.143,0.035,0.481,0.07,0.659,0.07c1.245,0,1.813-1.013,1.813-2.523
		C6.703,57.095,6.312,56.632,5.565,56.632z M6.383,51.707c-0.178,0-0.462,0.036-0.587,0.054l-0.604,3.52
		c0.125,0.019,0.285,0.019,0.41,0.019c1.298,0,1.724-1.155,1.724-2.276C7.325,52.081,6.988,51.707,6.383,51.707z"/>
	<path fill="#F1E7CC" d="M23.063,62.181h-4.925l0.178-1.049l0.835-0.179l-0.195-2.649h-2.881l-1.315,2.649l0.782,0.179l-0.196,1.049
		h-3.378l0.178-1.049l0.835-0.179l5.441-10.633h2.898l1.139,10.633l0.782,0.179L23.063,62.181z M18.583,53.254l-1.867,3.734h2.151
		L18.583,53.254z"/>
	<path fill="#F1E7CC" d="M31.031,62.181h-5.032l0.178-1.049l0.835-0.179l1.671-9.406l-0.782-0.178l0.196-1.049h5.298
		c3.112,0,4.499,1.512,4.499,4.392C37.894,59.157,35.955,62.181,31.031,62.181z M32.773,51.707c-0.605,0-0.978,0.089-0.978,0.089
		l-1.564,8.873c0,0,0.586,0.088,0.942,0.088c2.365,0,3.396-3.2,3.396-6.062C34.569,52.471,33.928,51.707,32.773,51.707z"/>
	<path fill="#F1E7CC" d="M55.304,56.988l1.208,3.965l0.782,0.179L57.1,62.181h-3.823l-1.334-5.032l-0.16-0.054l-0.694,3.858
		l0.694,0.16l-0.177,1.067h-4.695l0.178-1.049l0.836-0.179l1.671-9.406l-0.782-0.178l0.195-1.049h5.228
		c2.205,0,3.378,0.854,3.378,2.934C57.615,55.246,56.708,56.454,55.304,56.988z M53.33,51.725c-0.373,0-0.622,0.089-0.622,0.089
		l-0.693,3.929c0,0,0.374,0.178,0.782,0.178c0.854,0,1.458-1.174,1.458-2.631C54.254,52.152,53.917,51.725,53.33,51.725z"/>
	<path fill="#F1E7CC" d="M71.147,62.181h-4.925l0.178-1.049l0.836-0.179l-0.196-2.649H64.16l-1.315,2.649l0.782,0.179l-0.195,1.049
		h-3.378l0.177-1.049l0.836-0.179l5.44-10.633h2.898l1.138,10.633l0.783,0.179L71.147,62.181z M66.667,53.254L64.8,56.988h2.15
		L66.667,53.254z"/>
	<path fill="#F1E7CC" d="M84.484,54.269h-1.174l0.16-1.992c-0.284-0.249-0.853-0.729-2.115-0.729c-1.814,0-3.201,2.792-3.201,5.991
		c0,2.01,0.658,3.184,1.849,3.184c1.138,0,2.471-0.711,3.271-1.174l-0.32,1.939c-0.675,0.426-1.867,0.977-3.485,0.977
		c-2.774,0-4.658-1.529-4.658-4.942c0-4.658,2.702-7.539,6.543-7.539c1.937,0,3.093,0.8,3.663,1.209L84.484,54.269z"/>
	<path fill="#F1E7CC" d="M92.95,51.369l-0.836,0.178l-1.671,9.406l0.782,0.179l-0.195,1.049h-4.766l0.178-1.049l0.836-0.179
		l1.671-9.406l-0.781-0.178l0.195-1.049h4.765L92.95,51.369z M98.55,51.369l-0.835,0.178l-3.271,3.521l1.795,5.866l0.836,0.197
		l-0.178,1.049H93.11l-1.796-6.1l4.356-4.534l-0.783-0.178l0.196-1.049h3.645L98.55,51.369z"/>
	<path fill="#F1E7CC" d="M110.126,53.467h-1.049l-0.071-1.689h-3.378l-0.604,3.484h1.956l0.355-0.977h0.996l-0.605,3.307h-0.996
		v-0.979h-1.955l-0.711,4.09h3.378l0.871-1.902h1.049l-0.872,3.379h-8.659l0.178-1.049l0.835-0.179l1.672-9.406l-0.782-0.178
		l0.196-1.049h8.748L110.126,53.467z"/>
	<path fill="#F1E7CC" d="M123.145,53.682h-1.049l-0.071-1.637h-1.956l-1.565,8.89l1.405,0.144l-0.196,1.103h-6.009l0.196-1.103
		l1.44-0.144l1.565-8.89h-1.957l-0.641,1.637h-1.048l0.693-3.361h9.708L123.145,53.682z"/>
	<path fill="#F1E7CC" d="M135.024,58.304c-1.191,0-2.133-0.996-2.133-2.151c0-1.173,0.942-2.134,2.133-2.134
		c1.174,0,2.134,0.943,2.134,2.134C137.158,57.326,136.215,58.304,135.024,58.304z"/>
	<path fill="#F1E7CC" d="M154.674,56.988l1.208,3.965l0.783,0.179l-0.196,1.049h-3.823l-1.333-5.032l-0.16-0.054l-0.693,3.858
		l0.693,0.16l-0.178,1.067h-4.694l0.178-1.049l0.835-0.179l1.672-9.406l-0.782-0.178l0.195-1.049h5.227
		c2.206,0,3.378,0.854,3.378,2.934C156.985,55.246,156.079,56.454,154.674,56.988z M152.701,51.725
		c-0.374,0-0.623,0.089-0.623,0.089l-0.693,3.929c0,0,0.373,0.178,0.783,0.178c0.853,0,1.458-1.174,1.458-2.631
		C153.625,52.152,153.287,51.725,152.701,51.725z"/>
	<path fill="#F1E7CC" d="M169.718,53.467h-1.049l-0.072-1.689h-3.378l-0.604,3.484h1.956l0.355-0.977h0.996l-0.604,3.307h-0.996
		v-0.979h-1.955l-0.712,4.09h3.378l0.871-1.902h1.049l-0.872,3.379h-8.659l0.177-1.049l0.836-0.179l1.671-9.406l-0.782-0.178
		l0.195-1.049h8.748L169.718,53.467z"/>
	<path fill="#F1E7CC" d="M181.846,54.269h-1.174l0.16-1.992c-0.284-0.249-0.853-0.729-2.115-0.729c-1.813,0-3.2,2.792-3.2,5.991
		c0,2.01,0.658,3.184,1.849,3.184c1.138,0,2.471-0.711,3.271-1.174l-0.319,1.939c-0.676,0.426-1.867,0.977-3.485,0.977
		c-2.774,0-4.659-1.529-4.659-4.942c0-4.658,2.703-7.539,6.543-7.539c1.938,0,3.093,0.8,3.663,1.209L181.846,54.269z"/>
	<path fill="#F1E7CC" d="M189.333,62.464c-2.898,0-4.997-1.262-4.997-4.765c0-4.25,2.027-7.717,6.473-7.717
		c2.916,0,4.979,1.369,4.979,4.765C195.788,59.051,193.796,62.464,189.333,62.464z M190.685,51.547
		c-2.081,0-3.041,4.214-3.041,6.258c0,2.08,0.551,3.076,1.831,3.076c2.027,0,3.022-4.107,3.022-6.241
		C192.498,52.489,191.929,51.547,190.685,51.547z"/>
	<path fill="#F1E7CC" d="M206.138,56.988l1.208,3.965l0.783,0.179l-0.196,1.049h-3.823l-1.333-5.032l-0.16-0.054l-0.693,3.858
		l0.693,0.16l-0.177,1.067h-4.694l0.177-1.049l0.836-0.179l1.671-9.406l-0.782-0.178l0.195-1.049h5.227
		c2.206,0,3.378,0.854,3.378,2.934C208.449,55.246,207.542,56.454,206.138,56.988z M204.164,51.725
		c-0.374,0-0.623,0.089-0.623,0.089l-0.693,3.929c0,0,0.373,0.178,0.783,0.178c0.853,0,1.458-1.174,1.458-2.631
		C205.088,52.152,204.751,51.725,204.164,51.725z"/>
	<path fill="#F1E7CC" d="M215.918,62.181h-5.031l0.177-1.049l0.836-0.179l1.672-9.406l-0.783-0.178l0.196-1.049h5.299
		c3.11,0,4.498,1.512,4.498,4.392C222.782,59.157,220.843,62.181,215.918,62.181z M217.661,51.707c-0.604,0-0.978,0.089-0.978,0.089
		l-1.565,8.873c0,0,0.587,0.088,0.943,0.088c2.365,0,3.396-3.2,3.396-6.062C219.457,52.471,218.816,51.707,217.661,51.707z"/>
	<path fill="#F1E7CC" d="M231.549,51.369l-0.835,0.178l-1.672,9.406l0.783,0.179l-0.196,1.049h-4.765l0.178-1.049l0.835-0.179
		l1.672-9.406l-0.783-0.178l0.196-1.049h4.765L231.549,51.369z"/>
	<path fill="#F1E7CC" d="M245.597,51.369l-0.834,0.178l-1.885,10.633h-2.471l-3.841-8.909l-1.352,7.681l0.782,0.179l-0.195,1.049
		h-3.219l0.178-1.049l0.836-0.179l1.671-9.406l-0.781-0.178l0.195-1.049h3.965l3.36,7.628l1.138-6.401l-0.782-0.178l0.195-1.049
		h3.219L245.597,51.369z"/>
	<path fill="#F1E7CC" d="M258.631,56.988l-0.817,0.177l-0.907,5.016h-1.814l-0.426-0.445c-0.302,0.195-1.209,0.729-2.525,0.729
		c-2.24,0-4.268-1.154-4.268-4.818c0-4.996,2.987-7.663,6.757-7.663c2.098,0,3.36,0.783,3.965,1.191l-0.551,3.13h-1.174l0.142-1.886
		c-0.337-0.266-0.925-0.781-2.24-0.781c-1.921,0-3.539,2.632-3.539,5.92c0,2.151,0.569,3.165,1.689,3.165
		c0.498,0,0.977-0.16,1.12-0.23l0.569-3.254l-1.227-0.125l0.213-1.191h5.227L258.631,56.988z"/>
	<path fill="#F1E7CC" d="M277.109,54.161H275.9l0.16-1.921c-0.338-0.23-1.032-0.604-2.01-0.604c-0.889,0-1.529,0.515-1.529,1.439
		c0,0.818,0.568,1.12,1.049,1.458l1.44,0.996c0.96,0.658,1.653,1.512,1.653,3.004c0,3.059-1.813,3.93-4.676,3.93
		c-1.884,0-3.378-0.729-4.071-1.12l0.587-3.271h1.209l-0.142,1.99c0.337,0.232,1.209,0.693,2.222,0.693
		c1.031,0,1.636-0.443,1.636-1.546c0-0.747-0.355-1.12-0.835-1.441l-1.333-0.888c-0.943-0.623-1.938-1.458-1.938-3.184
		c0-2.667,2.044-3.716,4.623-3.716c1.832,0,3.041,0.641,3.716,1.031L277.109,54.161z"/>
	<path fill="#F1E7CC" d="M290.481,53.682h-1.049l-0.071-1.637h-1.956l-1.565,8.89l1.405,0.144l-0.196,1.103h-6.009l0.196-1.103
		l1.439-0.144l1.565-8.89h-1.956l-0.641,1.637h-1.049l0.693-3.361h9.708L290.481,53.682z"/>
	<path fill="#F1E7CC" d="M304.21,51.369l-0.836,0.178l-1.208,6.774c-0.551,3.041-1.778,4.143-4.694,4.143
		c-2.792,0-4.551-1.314-4.036-4.267l1.173-6.65l-0.782-0.178l0.196-1.049h4.765l-0.178,1.049l-0.835,0.178l-1.156,6.596
		c-0.268,1.547-0.036,2.738,1.405,2.738c1.404,0,2.222-0.941,2.506-2.561l1.191-6.774l-0.782-0.178l0.195-1.049h3.271L304.21,51.369
		z"/>
	<path fill="#F1E7CC" d="M310.274,62.181h-5.031l0.178-1.049l0.835-0.179l1.671-9.406l-0.783-0.178l0.196-1.049h5.299
		c3.111,0,4.499,1.512,4.499,4.392C317.138,59.157,315.2,62.181,310.274,62.181z M312.017,51.707c-0.604,0-0.978,0.089-0.978,0.089
		l-1.565,8.873c0,0,0.587,0.088,0.943,0.088c2.365,0,3.396-3.2,3.396-6.062C313.813,52.471,313.173,51.707,312.017,51.707z"/>
	<path fill="#F1E7CC" d="M325.905,51.369l-0.836,0.178l-1.671,9.406l0.782,0.179l-0.195,1.049h-4.765l0.178-1.049l0.835-0.179
		l1.671-9.406l-0.782-0.178l0.195-1.049h4.765L325.905,51.369z"/>
	<path fill="#F1E7CC" d="M333.019,62.464c-2.898,0-4.997-1.262-4.997-4.765c0-4.25,2.027-7.717,6.472-7.717
		c2.917,0,4.979,1.369,4.979,4.765C339.473,59.051,337.481,62.464,333.019,62.464z M334.37,51.547c-2.08,0-3.04,4.214-3.04,6.258
		c0,2.08,0.551,3.076,1.831,3.076c2.027,0,3.023-4.107,3.023-6.241C336.184,52.489,335.614,51.547,334.37,51.547z"/>
</g>
<g>
	<path fill="#F1E7CC" d="M531.144,54.272h-1.175l0.16-1.994c-0.284-0.249-0.854-0.729-2.117-0.729c-1.816,0-3.204,2.794-3.204,5.997
		c0,2.012,0.659,3.187,1.852,3.187c1.139,0,2.474-0.712,3.274-1.175l-0.32,1.939c-0.676,0.428-1.869,0.979-3.488,0.979
		c-2.776,0-4.663-1.529-4.663-4.947c0-4.663,2.705-7.546,6.55-7.546c1.939,0,3.096,0.801,3.666,1.21L531.144,54.272z"/>
	<path fill="#F1E7CC" d="M540.721,62.191h-7.795l0.178-1.05l0.836-0.178l1.674-9.415l-0.783-0.178l0.195-1.05h4.858l-0.196,1.05
		l-0.906,0.178l-1.621,9.165h2.582l0.658-1.708h1.068L540.721,62.191z"/>
	<path fill="#F1E7CC" d="M554.212,53.471h-1.05l-0.071-1.69h-3.382l-0.605,3.488h1.959l0.355-0.979h0.996l-0.604,3.31h-0.997V56.62
		h-1.957l-0.713,4.094h3.383l0.871-1.904h1.051l-0.873,3.382h-8.666l0.178-1.05l0.836-0.178l1.674-9.415l-0.783-0.178l0.195-1.05
		h8.756L554.212,53.471z"/>
	<path fill="#F1E7CC" d="M568.489,51.371l-0.819,0.178l-5.232,10.643h-2.865l-1.121-10.643l-0.783-0.178l0.196-1.05h4.822
		l-0.178,1.05l-0.836,0.178l0.693,7.243l3.596-7.243l-0.783-0.178l0.195-1.05h3.311L568.489,51.371z"/>
	<path fill="#F1E7CC" d="M579.844,53.471h-1.049l-0.072-1.69h-3.381l-0.605,3.488h1.958l0.355-0.979h0.997l-0.605,3.31h-0.996V56.62
		h-1.958l-0.712,4.094h3.382l0.872-1.904h1.05l-0.872,3.382h-8.667l0.178-1.05l0.836-0.178l1.673-9.415l-0.782-0.178l0.195-1.05
		h8.757L579.844,53.471z"/>
	<path fill="#F1E7CC" d="M594.511,51.371l-0.837,0.178l-1.886,10.643h-2.474l-3.845-8.917l-1.353,7.689l0.783,0.178l-0.195,1.05
		h-3.223l0.179-1.05l0.836-0.178l1.673-9.415l-0.783-0.178l0.196-1.05h3.969l3.364,7.635l1.139-6.407l-0.783-0.178l0.195-1.05h3.222
		L594.511,51.371z"/>
	<path fill="#F1E7CC" d="M606.383,62.191h-4.93l0.178-1.05l0.838-0.178l-0.196-2.652h-2.884l-1.316,2.652l0.783,0.178l-0.195,1.05
		h-3.382l0.178-1.05l0.836-0.178l5.446-10.643h2.9l1.14,10.643l0.783,0.178L606.383,62.191z M601.899,53.257l-1.869,3.738h2.154
		L601.899,53.257z"/>
	<path fill="#F1E7CC" d="M617.118,62.191h-7.795l0.178-1.05l0.836-0.178l1.674-9.415l-0.783-0.178l0.195-1.05h4.858l-0.195,1.05
		l-0.907,0.178l-1.62,9.165h2.581l0.658-1.708h1.068L617.118,62.191z"/>
	<path fill="#F1E7CC" d="M625.341,62.191h-5.036l0.178-1.05l0.836-0.178l1.674-9.415l-0.783-0.178l0.195-1.05h5.304
		c3.114,0,4.503,1.513,4.503,4.395C632.211,59.166,630.271,62.191,625.341,62.191z M627.085,51.709
		c-0.605,0-0.979,0.089-0.979,0.089l-1.566,8.881c0,0,0.588,0.09,0.943,0.09c2.367,0,3.4-3.205,3.4-6.07
		C628.883,52.474,628.243,51.709,627.085,51.709z"/>
	<path fill="#F1E7CC" d="M636.948,55.802l-0.926-1.191c0.604-0.57,1.139-1.122,1.513-1.869l-1.05-0.641
		c-0.036-1.068,0.444-2.118,1.708-2.118c1.032,0,1.62,0.729,1.62,1.762C639.813,53.542,638.335,54.912,636.948,55.802z"/>
	<path fill="#F1E7CC" d="M650.831,54.165h-1.211l0.16-1.922c-0.338-0.231-1.032-0.605-2.011-0.605c-0.89,0-1.53,0.516-1.53,1.441
		c0,0.818,0.568,1.121,1.05,1.459l1.441,0.997c0.961,0.659,1.655,1.513,1.655,3.008c0,3.062-1.815,3.933-4.681,3.933
		c-1.887,0-3.382-0.729-4.075-1.121l0.587-3.273h1.21l-0.143,1.992c0.338,0.232,1.211,0.695,2.225,0.695
		c1.033,0,1.639-0.445,1.639-1.549c0-0.748-0.357-1.121-0.838-1.441l-1.334-0.891c-0.943-0.623-1.94-1.459-1.94-3.186
		c0-2.669,2.047-3.72,4.628-3.72c1.832,0,3.043,0.641,3.719,1.032L650.831,54.165z"/>
	<path fill="#F1E7CC" d="M670.712,54.272h-1.175l0.16-1.994c-0.285-0.249-0.854-0.729-2.117-0.729c-1.816,0-3.204,2.794-3.204,5.997
		c0,2.012,0.659,3.187,1.851,3.187c1.14,0,2.475-0.712,3.275-1.175l-0.32,1.939c-0.677,0.428-1.869,0.979-3.488,0.979
		c-2.777,0-4.663-1.529-4.663-4.947c0-4.663,2.705-7.546,6.55-7.546c1.939,0,3.096,0.801,3.666,1.21L670.712,54.272z"/>
	<path fill="#F1E7CC" d="M680.895,56.995l1.209,3.969l0.783,0.178l-0.195,1.05h-3.826l-1.336-5.036l-0.16-0.054l-0.693,3.862
		l0.693,0.16l-0.178,1.067h-4.697l0.178-1.05l0.836-0.178l1.674-9.415l-0.783-0.178l0.195-1.05h5.232
		c2.207,0,3.381,0.854,3.381,2.937C683.208,55.251,682.3,56.461,680.895,56.995z M678.918,51.727c-0.373,0-0.623,0.089-0.623,0.089
		l-0.693,3.933c0,0,0.373,0.178,0.783,0.178c0.854,0,1.459-1.175,1.459-2.634C679.844,52.154,679.506,51.727,678.918,51.727z"/>
	<path fill="#F1E7CC" d="M696.753,62.191h-4.93l0.178-1.05l0.837-0.178l-0.195-2.652h-2.884l-1.317,2.652l0.783,0.178l-0.195,1.05
		h-3.382l0.179-1.05l0.836-0.178l5.445-10.643h2.901l1.139,10.643l0.783,0.178L696.753,62.191z M692.268,53.257l-1.868,3.738h2.153
		L692.268,53.257z"/>
	<path fill="#F1E7CC" d="M709.997,53.471h-1.051l-0.053-1.69h-3.4l-0.604,3.488h1.958l0.355-0.979h0.997l-0.605,3.31h-0.997V56.62
		h-1.957l-0.766,4.344l1.14,0.16l-0.196,1.067h-5.125l0.178-1.05l0.836-0.178l1.674-9.415l-0.783-0.178l0.195-1.05h8.756
		L709.997,53.471z"/>
	<path fill="#F1E7CC" d="M722.848,53.685h-1.051l-0.07-1.638h-1.959l-1.566,8.899l1.406,0.143l-0.195,1.103h-6.016l0.196-1.103
		l1.441-0.143l1.565-8.899h-1.957l-0.641,1.638h-1.051l0.694-3.364h9.718L722.848,53.685z"/>
	<path fill="#F1E7CC" d="M739.633,56.995l1.21,3.969l0.783,0.178l-0.196,1.05h-3.826l-1.334-5.036l-0.16-0.054l-0.694,3.862
		l0.694,0.16l-0.179,1.067h-4.698l0.178-1.05l0.836-0.178l1.674-9.415l-0.783-0.178l0.195-1.05h5.232
		c2.207,0,3.382,0.854,3.382,2.937C741.947,55.251,741.04,56.461,739.633,56.995z M737.658,51.727c-0.374,0-0.623,0.089-0.623,0.089
		l-0.694,3.933c0,0,0.374,0.178,0.783,0.178c0.854,0,1.459-1.175,1.459-2.634C738.583,52.154,738.245,51.727,737.658,51.727z"/>
	<path fill="#F1E7CC" d="M754.692,53.471h-1.051l-0.07-1.69h-3.382l-0.605,3.488h1.958l0.355-0.979h0.997l-0.604,3.31h-0.998V56.62
		h-1.957l-0.712,4.094h3.382l0.872-1.904h1.05l-0.872,3.382h-8.667l0.178-1.05l0.836-0.178l1.674-9.415l-0.783-0.178l0.195-1.05
		h8.757L754.692,53.471z"/>
	<path fill="#F1E7CC" d="M766.832,54.272h-1.175l0.16-1.994c-0.285-0.249-0.854-0.729-2.117-0.729c-1.816,0-3.204,2.794-3.204,5.997
		c0,2.012,0.658,3.187,1.851,3.187c1.14,0,2.475-0.712,3.275-1.175l-0.32,1.939c-0.677,0.428-1.869,0.979-3.488,0.979
		c-2.777,0-4.663-1.529-4.663-4.947c0-4.663,2.705-7.546,6.55-7.546c1.939,0,3.096,0.801,3.666,1.21L766.832,54.272z"/>
	<path fill="#F1E7CC" d="M774.326,62.476c-2.901,0-5.001-1.264-5.001-4.77c0-4.253,2.028-7.724,6.479-7.724
		c2.918,0,4.982,1.371,4.982,4.77C780.786,59.06,778.792,62.476,774.326,62.476z M775.678,51.549c-2.082,0-3.043,4.218-3.043,6.265
		c0,2.082,0.551,3.079,1.832,3.079c2.029,0,3.025-4.112,3.025-6.247C777.493,52.492,776.924,51.549,775.678,51.549z"/>
	<path fill="#F1E7CC" d="M791.146,56.995l1.21,3.969l0.783,0.178l-0.195,1.05h-3.827l-1.335-5.036l-0.16-0.054l-0.693,3.862
		l0.693,0.16l-0.178,1.067h-4.698l0.179-1.05l0.836-0.178l1.673-9.415l-0.783-0.178l0.196-1.05h5.232
		c2.207,0,3.381,0.854,3.381,2.937C793.459,55.251,792.551,56.461,791.146,56.995z M789.17,51.727c-0.373,0-0.623,0.089-0.623,0.089
		l-0.693,3.933c0,0,0.373,0.178,0.783,0.178c0.854,0,1.459-1.175,1.459-2.634C790.096,52.154,789.758,51.727,789.17,51.727z"/>
	<path fill="#F1E7CC" d="M800.936,62.191H795.9l0.178-1.05l0.837-0.178l1.673-9.415l-0.783-0.178l0.196-1.05h5.303
		c3.114,0,4.503,1.513,4.503,4.395C807.806,59.166,805.866,62.191,800.936,62.191z M802.68,51.709c-0.605,0-0.979,0.089-0.979,0.089
		l-1.566,8.881c0,0,0.588,0.09,0.943,0.09c2.367,0,3.399-3.205,3.399-6.07C804.478,52.474,803.837,51.709,802.68,51.709z"/>
	<path fill="#F1E7CC" d="M816.583,51.371l-0.837,0.178l-1.673,9.415l0.783,0.178l-0.196,1.05h-4.77l0.178-1.05l0.837-0.178
		l1.673-9.415l-0.783-0.178l0.196-1.05h4.77L816.583,51.371z"/>
	<path fill="#F1E7CC" d="M830.643,51.371l-0.836,0.178l-1.887,10.643h-2.475l-3.844-8.917l-1.353,7.689l0.783,0.178l-0.196,1.05
		h-3.221l0.178-1.05l0.836-0.178l1.674-9.415l-0.783-0.178l0.195-1.05h3.969l3.363,7.635l1.14-6.407l-0.783-0.178l0.196-1.05h3.221
		L830.643,51.371z"/>
	<path fill="#F1E7CC" d="M843.69,56.995l-0.818,0.178l-0.907,5.019h-1.815l-0.428-0.444c-0.302,0.195-1.209,0.729-2.526,0.729
		c-2.242,0-4.271-1.156-4.271-4.822c0-5.001,2.989-7.671,6.763-7.671c2.101,0,3.363,0.783,3.969,1.192l-0.551,3.133h-1.176
		l0.143-1.887c-0.338-0.267-0.926-0.783-2.242-0.783c-1.922,0-3.541,2.635-3.541,5.926c0,2.154,0.568,3.169,1.69,3.169
		c0.498,0,0.979-0.16,1.121-0.231l0.569-3.258l-1.229-0.123l0.214-1.193h5.232L843.69,56.995z"/>
	<path fill="#F1E7CC" d="M862.184,54.165h-1.21l0.16-1.922c-0.339-0.231-1.032-0.605-2.011-0.605c-0.891,0-1.531,0.516-1.531,1.441
		c0,0.818,0.57,1.121,1.051,1.459l1.441,0.997c0.961,0.659,1.654,1.513,1.654,3.008c0,3.062-1.814,3.933-4.68,3.933
		c-1.887,0-3.382-0.729-4.076-1.121l0.588-3.273h1.21l-0.143,1.992c0.339,0.232,1.21,0.695,2.225,0.695
		c1.032,0,1.638-0.445,1.638-1.549c0-0.748-0.356-1.121-0.837-1.441l-1.335-0.891c-0.943-0.623-1.939-1.459-1.939-3.186
		c0-2.669,2.047-3.72,4.627-3.72c1.834,0,3.044,0.641,3.72,1.032L862.184,54.165z"/>
	<path fill="#F1E7CC" d="M870.569,57.351c-0.641,0-1.264-0.16-1.513-0.249l-0.694,3.862l1.139,0.16l-0.195,1.067h-5.125l0.178-1.05
		l0.836-0.178l1.674-9.415l-0.783-0.178l0.195-1.05h5.232c2.207,0,3.381,0.854,3.381,2.937
		C874.893,56.087,873.096,57.351,870.569,57.351z M870.604,51.727c-0.373,0-0.623,0.089-0.623,0.089l-0.693,3.933
		c0,0,0.373,0.178,0.783,0.178c0.854,0,1.459-1.175,1.459-2.634C871.53,52.154,871.192,51.727,870.604,51.727z"/>
	<path fill="#F1E7CC" d="M886.053,62.191h-4.93l0.178-1.05l0.837-0.178l-0.196-2.652h-2.883l-1.316,2.652l0.783,0.178l-0.196,1.05
		h-3.382l0.178-1.05l0.837-0.178l5.446-10.643h2.9l1.139,10.643l0.783,0.178L886.053,62.191z M881.569,53.257l-1.869,3.738h2.153
		L881.569,53.257z"/>
	<path fill="#F1E7CC" d="M899.403,54.272h-1.174l0.16-1.994c-0.285-0.249-0.854-0.729-2.117-0.729c-1.816,0-3.205,2.794-3.205,5.997
		c0,2.012,0.659,3.187,1.852,3.187c1.139,0,2.475-0.712,3.275-1.175l-0.321,1.939c-0.676,0.428-1.868,0.979-3.487,0.979
		c-2.777,0-4.664-1.529-4.664-4.947c0-4.663,2.706-7.546,6.551-7.546c1.939,0,3.096,0.801,3.665,1.21L899.403,54.272z"/>
	<path fill="#F1E7CC" d="M911.489,53.471h-1.049l-0.072-1.69h-3.381l-0.605,3.488h1.958l0.356-0.979h0.996l-0.605,3.31h-0.996V56.62
		h-1.957l-0.713,4.094h3.382l0.872-1.904h1.051l-0.873,3.382h-8.667l0.178-1.05l0.837-0.178l1.673-9.415l-0.783-0.178l0.196-1.05
		h8.756L911.489,53.471z"/>
</g>
</svg>
