<?xml version="1.0" encoding="utf-8"?>
<!-- Generator: Adobe Illustrator 16.0.0, SVG Export Plug-In . SVG Version: 6.00 Build 0)  -->
<!DOCTYPE svg PUBLIC "-//W3C//DTD SVG 1.1//EN" "http://www.w3.org/Graphics/SVG/1.1/DTD/svg11.dtd">
<svg version="1.1" id="Layer_1" xmlns="http://www.w3.org/2000/svg" xmlns:xlink="http://www.w3.org/1999/xlink" x="0px" y="0px"
	 width="314.009px" height="11.546px" viewBox="0 0 314.009 11.546" enable-background="new 0 0 314.009 11.546"
	 xml:space="preserve">
<g>
	<path fill="#F7EBE0" d="M7.203,5.577C8.156,5.674,9.26,6.218,9.26,7.73c0,2.813-1.776,3.553-4.394,3.553H0l0.163-0.97l0.773-0.165
		l1.547-8.7L1.759,1.283l0.183-0.97h4.506c2.319,0,3.437,0.642,3.437,2.385C9.884,4.458,8.881,5.296,7.203,5.577z M5.147,6.152
		c-0.213,0-0.46,0.032-0.576,0.066L3.915,9.917c0.129,0.033,0.442,0.066,0.607,0.066c1.151,0,1.676-0.938,1.676-2.335
		C6.198,6.579,5.837,6.152,5.147,6.152z M5.903,1.596c-0.164,0-0.427,0.033-0.543,0.05L4.802,4.902
		C4.918,4.918,5.064,4.918,5.18,4.918c1.201,0,1.597-1.069,1.597-2.105C6.776,1.941,6.462,1.596,5.903,1.596z"/>
	<path fill="#F7EBE0" d="M21.333,11.283h-4.556l0.164-0.97l0.773-0.165l-0.181-2.45h-2.666l-1.215,2.45l0.724,0.165l-0.181,0.97
		H11.07l0.164-0.97l0.772-0.165l5.035-9.835h2.679l1.054,9.835l0.723,0.165L21.333,11.283z M17.188,3.027l-1.728,3.455h1.991
		L17.188,3.027z"/>
	<path fill="#F7EBE0" d="M28.703,11.283h-4.655l0.164-0.97l0.774-0.165l1.544-8.7l-0.722-0.165l0.181-0.97h4.9
		c2.879,0,4.161,1.398,4.161,4.062C35.051,8.487,33.257,11.283,28.703,11.283z M30.313,1.596c-0.56,0-0.904,0.083-0.904,0.083
		l-1.447,8.208c0,0,0.543,0.081,0.872,0.081c2.188,0,3.142-2.961,3.142-5.608C31.976,2.303,31.384,1.596,30.313,1.596z"/>
	<path fill="#F7EBE0" d="M51.155,6.482l1.119,3.666l0.723,0.165l-0.18,0.97H49.28l-1.234-4.654l-0.147-0.05l-0.643,3.569
		l0.643,0.148l-0.165,0.986h-4.342l0.164-0.97l0.773-0.165l1.546-8.7l-0.724-0.165l0.182-0.97h4.836c2.037,0,3.124,0.79,3.124,2.714
		C53.293,4.869,52.454,5.987,51.155,6.482z M49.328,1.612c-0.344,0-0.575,0.083-0.575,0.083l-0.64,3.634
		c0,0,0.344,0.165,0.724,0.165c0.788,0,1.348-1.087,1.348-2.435C50.185,2.007,49.872,1.612,49.328,1.612z"/>
	<path fill="#F7EBE0" d="M65.811,11.283h-4.557l0.164-0.97l0.774-0.165l-0.183-2.45h-2.663l-1.215,2.45l0.721,0.165l-0.181,0.97
		h-3.124l0.164-0.97l0.773-0.165l5.031-9.835h2.682l1.053,9.835l0.723,0.165L65.811,11.283z M61.666,3.027l-1.728,3.455h1.989
		L61.666,3.027z"/>
	<path fill="#F7EBE0" d="M78.147,3.964h-1.086l0.146-1.843c-0.262-0.229-0.788-0.674-1.955-0.674c-1.678,0-2.959,2.582-2.959,5.542
		c0,1.859,0.605,2.945,1.707,2.945c1.054,0,2.287-0.658,3.028-1.086l-0.297,1.793c-0.624,0.394-1.726,0.904-3.224,0.904
		c-2.565,0-4.31-1.415-4.31-4.572c0-4.31,2.5-6.974,6.054-6.974c1.789,0,2.859,0.742,3.388,1.119L78.147,3.964z"/>
	<path fill="#F7EBE0" d="M85.978,1.283l-0.772,0.165l-1.547,8.7l0.726,0.165l-0.184,0.97h-4.407l0.164-0.97l0.772-0.165l1.547-8.7
		l-0.723-0.165l0.18-0.97h4.408L85.978,1.283z M91.157,1.283l-0.772,0.165l-3.026,3.257l1.661,5.427l0.772,0.182l-0.163,0.97h-3.503
		l-1.662-5.641l4.028-4.194l-0.724-0.165l0.182-0.97h3.371L91.157,1.283z"/>
	<path fill="#F7EBE0" d="M101.865,3.224h-0.97l-0.066-1.563h-3.125l-0.559,3.224h1.809l0.328-0.904h0.924l-0.561,3.06h-0.923V6.134
		h-1.807l-0.659,3.783h3.127l0.805-1.76h0.971l-0.807,3.125h-8.009l0.164-0.97l0.772-0.165l1.546-8.7l-0.722-0.165l0.178-0.97h8.094
		L101.865,3.224z"/>
	<path fill="#F7EBE0" d="M113.906,3.422h-0.97l-0.066-1.513h-1.809l-1.449,8.223l1.299,0.133l-0.18,1.019h-5.559l0.181-1.019
		l1.332-0.133l1.449-8.223h-1.81l-0.595,1.513h-0.967l0.64-3.109h8.979L113.906,3.422z"/>
	<path fill="#F7EBE0" d="M124.896,7.698c-1.101,0-1.975-0.921-1.975-1.99c0-1.086,0.874-1.974,1.975-1.974
		c1.086,0,1.973,0.872,1.973,1.974C126.868,6.793,125.997,7.698,124.896,7.698z"/>
	<path fill="#F7EBE0" d="M143.071,6.482l1.117,3.666l0.726,0.165l-0.181,0.97h-3.538l-1.232-4.654l-0.149-0.05l-0.64,3.569
		l0.64,0.148l-0.164,0.986h-4.342l0.166-0.97l0.771-0.165l1.545-8.7l-0.721-0.165l0.18-0.97h4.834c2.041,0,3.126,0.79,3.126,2.714
		C145.209,4.869,144.37,5.987,143.071,6.482z M141.245,1.612c-0.346,0-0.575,0.083-0.575,0.083l-0.642,3.634
		c0,0,0.344,0.165,0.725,0.165c0.789,0,1.348-1.087,1.348-2.435C142.101,2.007,141.787,1.612,141.245,1.612z"/>
	<path fill="#F7EBE0" d="M156.986,3.224h-0.97l-0.066-1.563h-3.125l-0.561,3.224h1.811l0.33-0.904h0.918l-0.557,3.06h-0.923V6.134
		h-1.807l-0.659,3.783h3.123l0.809-1.76h0.97l-0.806,3.125h-8.009l0.164-0.97l0.772-0.165l1.546-8.7l-0.725-0.165l0.183-0.97h8.091
		L156.986,3.224z"/>
	<path fill="#F7EBE0" d="M168.205,3.964h-1.086l0.146-1.843c-0.261-0.229-0.788-0.674-1.956-0.674c-1.677,0-2.959,2.582-2.959,5.542
		c0,1.859,0.607,2.945,1.709,2.945c1.053,0,2.287-0.658,3.026-1.086l-0.295,1.793c-0.627,0.394-1.727,0.904-3.226,0.904
		c-2.564,0-4.308-1.415-4.308-4.572c0-4.31,2.499-6.974,6.052-6.974c1.792,0,2.86,0.742,3.389,1.119L168.205,3.964z"/>
	<path fill="#F7EBE0" d="M175.13,11.546c-2.682,0-4.621-1.168-4.621-4.408c0-3.93,1.875-7.138,5.987-7.138
		c2.697,0,4.604,1.267,4.604,4.408C181.101,8.388,179.259,11.546,175.13,11.546z M176.381,1.448c-1.924,0-2.815,3.899-2.815,5.789
		c0,1.925,0.512,2.846,1.696,2.846c1.874,0,2.795-3.799,2.795-5.773C178.057,2.319,177.53,1.448,176.381,1.448z"/>
	<path fill="#F7EBE0" d="M190.675,6.482l1.119,3.666l0.723,0.165l-0.183,0.97h-3.536l-1.232-4.654l-0.148-0.05l-0.642,3.569
		l0.642,0.148l-0.163,0.986h-4.342l0.163-0.97l0.773-0.165l1.547-8.7l-0.725-0.165l0.181-0.97h4.835c2.04,0,3.125,0.79,3.125,2.714
		C192.812,4.869,191.973,5.987,190.675,6.482z M188.849,1.612c-0.347,0-0.577,0.083-0.577,0.083l-0.64,3.634
		c0,0,0.344,0.165,0.723,0.165c0.789,0,1.35-1.087,1.35-2.435C189.704,2.007,189.393,1.612,188.849,1.612z"/>
	<path fill="#F7EBE0" d="M199.721,11.283h-4.653l0.162-0.97l0.774-0.165l1.546-8.7l-0.725-0.165l0.181-0.97h4.903
		c2.876,0,4.162,1.398,4.162,4.062C206.071,8.487,204.276,11.283,199.721,11.283z M201.334,1.596c-0.56,0-0.905,0.083-0.905,0.083
		l-1.448,8.208c0,0,0.544,0.081,0.872,0.081c2.188,0,3.143-2.961,3.143-5.608C202.995,2.303,202.401,1.596,201.334,1.596z"/>
	<path fill="#F7EBE0" d="M214.181,1.283l-0.773,0.165l-1.547,8.7l0.725,0.165l-0.182,0.97h-4.408l0.166-0.97l0.771-0.165l1.548-8.7
		l-0.725-0.165l0.182-0.97h4.408L214.181,1.283z"/>
	<path fill="#F7EBE0" d="M227.172,1.283l-0.771,0.165l-1.743,9.835h-2.286l-3.554-8.239l-1.247,7.104l0.721,0.165l-0.182,0.97
		h-2.977l0.164-0.97l0.772-0.165l1.548-8.7l-0.724-0.165l0.179-0.97h3.67l3.108,7.056l1.052-5.921l-0.724-0.165l0.181-0.97h2.978
		L227.172,1.283z"/>
	<path fill="#F7EBE0" d="M239.229,6.482l-0.756,0.163l-0.838,4.638h-1.679l-0.394-0.412c-0.28,0.183-1.118,0.676-2.336,0.676
		c-2.072,0-3.949-1.068-3.949-4.457c0-4.622,2.766-7.089,6.252-7.089c1.94,0,3.107,0.724,3.668,1.103l-0.51,2.894h-1.085
		l0.131-1.743c-0.313-0.246-0.855-0.723-2.072-0.723c-1.776,0-3.273,2.434-3.273,5.476c0,1.991,0.526,2.929,1.562,2.929
		c0.461,0,0.904-0.148,1.034-0.215l0.529-3.009l-1.135-0.115l0.196-1.102h4.835L239.229,6.482z"/>
	<path fill="#F7EBE0" d="M256.321,3.865h-1.119l0.149-1.776c-0.312-0.213-0.955-0.558-1.859-0.558c-0.821,0-1.413,0.477-1.413,1.331
		c0,0.758,0.525,1.037,0.971,1.349l1.33,0.921c0.891,0.609,1.529,1.398,1.529,2.78c0,2.828-1.677,3.635-4.325,3.635
		c-1.74,0-3.122-0.676-3.766-1.037l0.542-3.025h1.119l-0.13,1.842c0.31,0.214,1.116,0.642,2.054,0.642
		c0.954,0,1.515-0.411,1.515-1.431c0-0.691-0.329-1.036-0.773-1.333l-1.235-0.821c-0.87-0.576-1.791-1.349-1.791-2.945
		c0-2.466,1.891-3.438,4.276-3.438c1.694,0,2.813,0.593,3.437,0.955L256.321,3.865z"/>
	<path fill="#F7EBE0" d="M268.691,3.422h-0.972l-0.064-1.513h-1.809l-1.448,8.223l1.299,0.133l-0.18,1.019h-5.56l0.181-1.019
		l1.332-0.133l1.448-8.223h-1.81l-0.594,1.513h-0.969l0.641-3.109h8.98L268.691,3.422z"/>
	<path fill="#F7EBE0" d="M281.39,1.283l-0.772,0.165l-1.119,6.267c-0.51,2.812-1.645,3.832-4.344,3.832
		c-2.581,0-4.208-1.217-3.732-3.948l1.087-6.15l-0.725-0.165l0.183-0.97h4.405l-0.164,0.97l-0.771,0.165l-1.069,6.102
		c-0.247,1.432-0.034,2.533,1.3,2.533c1.297,0,2.055-0.872,2.318-2.368l1.101-6.267l-0.722-0.165l0.18-0.97h3.027L281.39,1.283z"/>
	<path fill="#F7EBE0" d="M287,11.283h-4.655l0.165-0.97l0.773-0.165l1.546-8.7l-0.724-0.165l0.181-0.97h4.901
		c2.878,0,4.161,1.398,4.161,4.062C293.349,8.487,291.556,11.283,287,11.283z M288.61,1.596c-0.558,0-0.903,0.083-0.903,0.083
		l-1.448,8.208c0,0,0.544,0.081,0.872,0.081c2.188,0,3.142-2.961,3.142-5.608C290.272,2.303,289.681,1.596,288.61,1.596z"/>
	<path fill="#F7EBE0" d="M301.456,1.283l-0.772,0.165l-1.546,8.7l0.725,0.165l-0.18,0.97h-4.408l0.164-0.97l0.772-0.165l1.548-8.7
		l-0.724-0.165l0.179-0.97h4.408L301.456,1.283z"/>
	<path fill="#F7EBE0" d="M308.038,11.546c-2.681,0-4.622-1.168-4.622-4.408c0-3.93,1.876-7.138,5.985-7.138
		c2.699,0,4.607,1.267,4.607,4.408C314.009,8.388,312.165,11.546,308.038,11.546z M309.286,1.448c-1.923,0-2.812,3.899-2.812,5.789
		c0,1.925,0.511,2.846,1.694,2.846c1.875,0,2.796-3.799,2.796-5.773C310.965,2.319,310.438,1.448,309.286,1.448z"/>
</g>
</svg>
