<?xml version="1.0" encoding="utf-8"?>
<!-- Generator: Adobe Illustrator 16.0.0, SVG Export Plug-In . SVG Version: 6.00 Build 0)  -->
<!DOCTYPE svg PUBLIC "-//W3C//DTD SVG 1.1//EN" "http://www.w3.org/Graphics/SVG/1.1/DTD/svg11.dtd">
<svg version="1.1" id="Layer_1" xmlns="http://www.w3.org/2000/svg" xmlns:xlink="http://www.w3.org/1999/xlink" x="0px" y="0px"
	 width="167.463px" height="129.726px" viewBox="0 0 167.463 129.726" enable-background="new 0 0 167.463 129.726"
	 xml:space="preserve">
<g>
	<path fill="#605964" d="M15.984,114.919c1.277,0.131,2.758,0.859,2.758,2.889c0,3.771-2.383,4.764-5.891,4.764H6.327l0.22-1.301
		l1.036-0.223l2.075-11.664l-0.973-0.221l0.244-1.301h6.041c3.109,0,4.607,0.861,4.607,3.199
		C19.578,113.419,18.233,114.544,15.984,114.919z M13.229,115.69c-0.285,0-0.617,0.043-0.773,0.088l-0.879,4.961
		c0.174,0.045,0.594,0.088,0.814,0.088c1.543,0,2.246-1.256,2.246-3.129C14.637,116.263,14.153,115.69,13.229,115.69z
		 M14.241,109.583c-0.219,0-0.571,0.043-0.728,0.066l-0.75,4.365c0.156,0.021,0.354,0.021,0.508,0.021c1.61,0,2.14-1.434,2.14-2.822
		C15.411,110.046,14.991,109.583,14.241,109.583z"/>
	<path fill="#605964" d="M34.928,122.571H28.82l0.22-1.301l1.037-0.223l-0.242-3.285h-3.574l-1.628,3.285l0.969,0.223l-0.241,1.301
		h-4.19l0.219-1.301l1.037-0.223l6.749-13.186h3.593l1.412,13.186l0.969,0.223L34.928,122.571z M29.372,111.501l-2.316,4.631h2.669
		L29.372,111.501z"/>
	<path fill="#605964" d="M44.81,122.571h-6.241l0.221-1.301l1.037-0.223l2.069-11.664l-0.968-0.221l0.242-1.301h6.571
		c3.859,0,5.578,1.875,5.578,5.447C53.319,118.821,50.916,122.571,44.81,122.571z M46.969,109.583c-0.75,0-1.212,0.111-1.212,0.111
		l-1.942,11.002c0,0,0.729,0.109,1.17,0.109c2.934,0,4.213-3.969,4.213-7.52C49.197,110.53,48.403,109.583,46.969,109.583z"/>
	<path fill="#605964" d="M74.911,116.132l1.501,4.916l0.967,0.223l-0.24,1.301h-4.741l-1.655-6.24l-0.198-0.068l-0.86,4.785
		l0.86,0.199l-0.22,1.324h-5.821l0.221-1.301l1.035-0.223l2.072-11.664l-0.97-0.221l0.243-1.301h6.485
		c2.731,0,4.187,1.059,4.187,3.639C77.776,113.972,76.653,115.47,74.911,116.132z M72.461,109.604c-0.46,0-0.771,0.111-0.771,0.111
		l-0.858,4.873c0,0,0.462,0.221,0.971,0.221c1.057,0,1.808-1.457,1.808-3.264C73.61,110.134,73.191,109.604,72.461,109.604z"/>
	<path fill="#605964" d="M94.559,122.571H88.45l0.221-1.301l1.037-0.223l-0.243-3.285h-3.572l-1.629,3.285l0.968,0.223l-0.243,1.301
		h-4.189l0.221-1.301l1.037-0.223l6.746-13.186h3.594l1.413,13.186l0.969,0.223L94.559,122.571z M89.003,111.501l-2.316,4.631h2.667
		L89.003,111.501z"/>
	<path fill="#605964" d="M111.1,112.757h-1.457l0.197-2.469c-0.352-0.309-1.057-0.904-2.621-0.904c-2.25,0-3.967,3.463-3.967,7.43
		c0,2.494,0.812,3.949,2.289,3.949c1.412,0,3.065-0.883,4.059-1.455l-0.397,2.402c-0.837,0.529-2.314,1.213-4.323,1.213
		c-3.438,0-5.776-1.896-5.776-6.129c0-5.777,3.353-9.352,8.116-9.352c2.399,0,3.834,0.994,4.542,1.5L111.1,112.757z"/>
	<path fill="#605964" d="M121.597,109.163l-1.036,0.221l-2.074,11.664l0.974,0.223l-0.245,1.301h-5.909l0.22-1.301l1.035-0.223
		l2.073-11.664l-0.968-0.221l0.241-1.301h5.91L121.597,109.163z M128.542,109.163l-1.037,0.221l-4.056,4.367l2.227,7.275
		l1.035,0.244l-0.218,1.301h-4.698l-2.228-7.564l5.401-5.623l-0.97-0.221l0.242-1.301h4.519L128.542,109.163z"/>
	<path fill="#605964" d="M142.897,111.765h-1.3l-0.088-2.094h-4.191l-0.748,4.32h2.423l0.441-1.211h1.237l-0.75,4.102h-1.237v-1.213
		h-2.423l-0.883,5.07h4.191l1.078-2.359h1.302l-1.081,4.191h-10.736l0.219-1.301l1.036-0.223l2.073-11.664l-0.969-0.221l0.239-1.301
		h10.851L142.897,111.765z"/>
	<path fill="#605964" d="M159.041,112.03h-1.301l-0.089-2.029h-2.425l-1.943,11.025l1.742,0.178l-0.241,1.367h-7.452l0.242-1.367
		l1.786-0.178l1.942-11.025h-2.425l-0.798,2.029h-1.297l0.857-4.168h12.038L159.041,112.03z"/>
</g>
<g>
	<path fill="#605964" d="M83.004,20.155v20.653H62.35C62.35,29.402,71.597,20.155,83.004,20.155z"/>
	<path fill="#605964" d="M83.004,40.808h20.652c0,11.406-9.246,20.653-20.652,20.653V40.808z"/>
	<path fill="#605964" d="M83.004,76.761c19.824,0,35.952-16.128,35.952-35.953c0-19.825-16.128-35.953-35.952-35.953
		S47.05,20.983,47.05,40.808C47.05,60.633,63.18,76.761,83.004,76.761z M83.004,69.493c-15.845,0-28.687-12.843-28.687-28.685
		c0-15.843,12.842-28.685,28.687-28.685c15.842,0,28.683,12.842,28.683,28.685C111.687,56.649,98.846,69.493,83.004,69.493z"/>
</g>
</svg>
