<?xml version="1.0" encoding="utf-8"?>
<!-- Generator: Adobe Illustrator 16.0.0, SVG Export Plug-In . SVG Version: 6.00 Build 0)  -->
<!DOCTYPE svg PUBLIC "-//W3C//DTD SVG 1.1//EN" "http://www.w3.org/Graphics/SVG/1.1/DTD/svg11.dtd">
<svg version="1.1" id="Layer_1" xmlns="http://www.w3.org/2000/svg" xmlns:xlink="http://www.w3.org/1999/xlink" x="0px" y="0px"
	 width="53.583px" height="53.583px" viewBox="0 0 53.583 53.583" enable-background="new 0 0 53.583 53.583" xml:space="preserve">
<path fill="#70CDDD" d="M39.211,25.379l-14.219-8.795c-1.254-0.777-2.281-0.203-2.281,1.272v5.779h-8.006v6.417h8.006v5.673
	c0,1.476,1.027,2.05,2.281,1.272l14.219-8.795C40.467,27.427,40.467,26.155,39.211,25.379z"/>
<g>
	<path fill="#70CDDD" d="M26.791,5c12.017,0,21.792,9.776,21.792,21.792c0,12.016-9.775,21.791-21.792,21.791
		C14.775,48.583,5,38.808,5,26.792C5,14.776,14.775,5,26.791,5 M26.791,0C11.995,0,0,11.995,0,26.792
		c0,14.796,11.995,26.791,26.791,26.791c14.797,0,26.792-11.995,26.792-26.791C53.583,11.995,41.588,0,26.791,0L26.791,0z"/>
</g>
</svg>
