<?xml version="1.0" encoding="utf-8"?>
<!-- Generator: Adobe Illustrator 16.0.0, SVG Export Plug-In . SVG Version: 6.00 Build 0)  -->
<!DOCTYPE svg PUBLIC "-//W3C//DTD SVG 1.1//EN" "http://www.w3.org/Graphics/SVG/1.1/DTD/svg11.dtd">
<svg version="1.1" id="Layer_1" xmlns="http://www.w3.org/2000/svg" xmlns:xlink="http://www.w3.org/1999/xlink" x="0px" y="0px"
	 width="12.946px" height="19.023px" viewBox="0 0 12.946 19.023" enable-background="new 0 0 12.946 19.023" xml:space="preserve">
<g>
	<path fill="#70CDDD" d="M5.105,18.424c0,0.33-0.27,0.6-0.6,0.6H0.6c-0.33,0-0.6-0.27-0.6-0.6V0.6C0,0.27,0.27,0,0.6,0h3.906
		c0.33,0,0.6,0.27,0.6,0.6V18.424z"/>
</g>
<g>
	<path fill="#70CDDD" d="M12.946,18.424c0,0.33-0.271,0.6-0.6,0.6H8.441c-0.33,0-0.6-0.27-0.6-0.6V0.6c0-0.33,0.27-0.6,0.6-0.6
		h3.905c0.329,0,0.6,0.27,0.6,0.6V18.424z"/>
</g>
</svg>
