<?xml version="1.0" encoding="utf-8"?>
<!-- Generator: Adobe Illustrator 16.0.0, SVG Export Plug-In . SVG Version: 6.00 Build 0)  -->
<!DOCTYPE svg PUBLIC "-//W3C//DTD SVG 1.1//EN" "http://www.w3.org/Graphics/SVG/1.1/DTD/svg11.dtd">
<svg version="1.1" id="Layer_1" xmlns="http://www.w3.org/2000/svg" xmlns:xlink="http://www.w3.org/1999/xlink" x="0px" y="0px"
	 width="53.583px" height="53.583px" viewBox="0 0 53.583 53.583" enable-background="new 0 0 53.583 53.583" xml:space="preserve">
<g>
	<path fill="#F1E7C8" d="M25.291,35.703c0,0.329-0.27,0.6-0.6,0.6h-3.905c-0.33,0-0.6-0.271-0.6-0.6V17.879c0-0.33,0.27-0.6,0.6-0.6
		h3.905c0.33,0,0.6,0.27,0.6,0.6V35.703z"/>
</g>
<g>
	<path fill="#F1E7C8" d="M33.131,35.703c0,0.329-0.27,0.6-0.6,0.6h-3.904c-0.33,0-0.6-0.271-0.6-0.6V17.879c0-0.33,0.27-0.6,0.6-0.6
		h3.904c0.33,0,0.6,0.27,0.6,0.6V35.703z"/>
</g>
<g>
	<g>
		<g>
			<path fill="#F1E7C8" d="M26.791,0C11.995,0,0,11.995,0,26.792c0,14.796,11.995,26.791,26.791,26.791
				c14.797,0,26.792-11.995,26.792-26.791C53.583,11.995,41.588,0,26.791,0z M26.791,48.583C14.775,48.583,5,38.808,5,26.792
				C5,14.775,14.775,5,26.791,5s21.792,9.775,21.792,21.792C48.583,38.808,38.807,48.583,26.791,48.583z"/>
		</g>
	</g>
</g>
</svg>
