<?xml version="1.0" encoding="utf-8"?>
<!-- Generator: Adobe Illustrator 16.0.0, SVG Export Plug-In . SVG Version: 6.00 Build 0)  -->
<!DOCTYPE svg PUBLIC "-//W3C//DTD SVG 1.1//EN" "http://www.w3.org/Graphics/SVG/1.1/DTD/svg11.dtd">
<svg version="1.1" id="Layer_1" xmlns="http://www.w3.org/2000/svg" xmlns:xlink="http://www.w3.org/1999/xlink" x="0px" y="0px"
	 width="53.583px" height="53.583px" viewBox="0 0 53.583 53.583" enable-background="new 0 0 53.583 53.583" xml:space="preserve">
<g>
	<g>
		<g>
			<path fill="#F1E7CA" d="M26.791,0C11.995,0,0,11.995,0,26.792c0,14.796,11.995,26.791,26.791,26.791
				c14.797,0,26.792-11.995,26.792-26.791C53.583,11.995,41.588,0,26.791,0z M26.791,48.583C14.775,48.583,5,38.808,5,26.792
				C5,14.775,14.775,5,26.791,5c12.016,0,21.792,9.775,21.792,21.792C48.583,38.808,38.807,48.583,26.791,48.583z"/>
		</g>
	</g>
	<g>
		<path fill="#F1E7CA" d="M36.138,26.164l-13.426-8.927c-0.591-0.384-1.099-0.447-1.523-0.186c-0.425,0.262-0.636,0.766-0.636,1.509
			v18.059c0,0.744,0.211,1.24,0.636,1.488c0.424,0.248,0.933,0.18,1.523-0.207l13.426-8.885c0.593-0.413,0.888-0.896,0.888-1.446
			S36.731,26.55,36.138,26.164z"/>
	</g>
</g>
<g>
	
		<image overflow="visible" width="141" height="210" id="Ei1u33_1_" xlink:href="E9F9E8E1F7B7711.jpg"  transform="matrix(1 0 0 1 127.0337 -131.1035)">
	</image>
</g>
</svg>
