<?xml version="1.0" encoding="utf-8"?>
<!-- Generator: Adobe Illustrator 16.0.0, SVG Export Plug-In . SVG Version: 6.00 Build 0)  -->
<!DOCTYPE svg PUBLIC "-//W3C//DTD SVG 1.1//EN" "http://www.w3.org/Graphics/SVG/1.1/DTD/svg11.dtd">
<svg version="1.1" id="Layer_1" xmlns="http://www.w3.org/2000/svg" xmlns:xlink="http://www.w3.org/1999/xlink" x="0px" y="0px"
	 width="34.084px" height="26.451px" viewBox="0 0 34.084 26.451" enable-background="new 0 0 34.084 26.451" xml:space="preserve">
<path fill="#70CDDD" d="M34.084,2.027c0-1.849-0.86-2.565-1.907-1.593L20.28,11.456c-1.052,0.973-1.052,2.566,0,3.539l11.896,11.021
	c1.047,0.973,1.907,0.256,1.907-1.593V2.027z"/>
<path fill="#70CDDD" d="M19.193,2.027c0-1.849-0.86-2.565-1.907-1.593L5.39,11.456c-1.052,0.973-1.052,2.566,0,3.539l11.896,11.021
	c1.047,0.973,1.907,0.256,1.907-1.593V2.027z"/>
<g>
	<path fill="#70CDDD" d="M0,25.852c0,0.329,0.27,0.6,0.6,0.6h3.052c0.33,0,0.6-0.271,0.6-0.6V0.6c0-0.33-0.27-0.6-0.6-0.6H0.6
		C0.27,0,0,0.27,0,0.6V25.852z"/>
</g>
</svg>
